<svg fill="#ffffff" xmlns="http://www.w3.org/2000/svg"  viewBox="0 0 50 50" width="50px" height="50px"><path d="M 5 10 C 3.355469 10 2 11.355469 2 13 L 2 28.1875 C 2.003906 28.25 2.015625 28.3125 2.03125 28.375 C 2.03125 28.386719 2.03125 28.394531 2.03125 28.40625 C 1.582031 29.113281 1.214844 29.867188 0.9375 30.6875 C 0.316406 32.519531 0.0507813 34.621094 0 37 L 0 38 C 0 38.03125 0 38.0625 0 38.09375 L 0 50 L 7 50 L 7 46 C 7 45.167969 7.203125 44.734375 7.46875 44.46875 C 7.734375 44.203125 8.167969 44 9 44 L 41 44 C 41.832031 44 42.265625 44.203125 42.53125 44.46875 C 42.796875 44.734375 43 45.167969 43 46 L 43 50 L 50 50 L 50 38.15625 C 50.003906 38.105469 50.003906 38.050781 50 38 C 50 37.65625 50.007813 37.332031 50 37 C 49.949219 34.621094 49.683594 32.519531 49.0625 30.6875 C 48.785156 29.875 48.414063 29.136719 47.96875 28.4375 C 47.988281 28.355469 48 28.273438 48 28.1875 L 48 13 C 48 11.355469 46.644531 10 45 10 Z M 5 12 L 45 12 C 45.5625 12 46 12.4375 46 13 L 46 26.15625 C 45.753906 25.949219 45.492188 25.75 45.21875 25.5625 C 44.550781 25.101563 43.824219 24.671875 43 24.3125 L 43 20 C 43 19.296875 42.539063 18.75 42.03125 18.40625 C 41.523438 18.0625 40.902344 17.824219 40.125 17.625 C 38.570313 17.226563 36.386719 17 33.5 17 C 30.613281 17 28.429688 17.226563 26.875 17.625 C 26.117188 17.820313 25.5 18.042969 25 18.375 C 24.5 18.042969 23.882813 17.820313 23.125 17.625 C 21.570313 17.226563 19.386719 17 16.5 17 C 13.613281 17 11.429688 17.226563 9.875 17.625 C 9.097656 17.824219 8.476563 18.0625 7.96875 18.40625 C 7.460938 18.75 7 19.296875 7 20 L 7 24.3125 C 6.175781 24.671875 5.449219 25.101563 4.78125 25.5625 C 4.507813 25.75 4.246094 25.949219 4 26.15625 L 4 13 C 4 12.4375 4.4375 12 5 12 Z M 16.5 19 C 19.28125 19 21.34375 19.234375 22.625 19.5625 C 23.265625 19.726563 23.707031 19.925781 23.90625 20.0625 C 23.988281 20.117188 23.992188 20.125 24 20.125 L 24 22 C 17.425781 22.042969 12.558594 22.535156 9 23.625 L 9 20.125 C 9.007813 20.125 9.011719 20.117188 9.09375 20.0625 C 9.292969 19.925781 9.734375 19.726563 10.375 19.5625 C 11.65625 19.234375 13.71875 19 16.5 19 Z M 33.5 19 C 36.28125 19 38.34375 19.234375 39.625 19.5625 C 40.265625 19.726563 40.707031 19.925781 40.90625 20.0625 C 40.988281 20.117188 40.992188 20.125 41 20.125 L 41 23.625 C 37.441406 22.535156 32.574219 22.042969 26 22 L 26 20.125 C 26.007813 20.125 26.011719 20.117188 26.09375 20.0625 C 26.292969 19.925781 26.734375 19.726563 27.375 19.5625 C 28.65625 19.234375 30.71875 19 33.5 19 Z M 24.8125 24 C 24.917969 24.015625 25.019531 24.015625 25.125 24 C 25.15625 24 25.1875 24 25.21875 24 C 35.226563 24.015625 41.007813 25.0625 44.09375 27.1875 C 45.648438 28.257813 46.589844 29.585938 47.1875 31.34375 C 47.707031 32.875 47.917969 34.761719 47.96875 37 L 2.03125 37 C 2.082031 34.761719 2.292969 32.875 2.8125 31.34375 C 3.410156 29.585938 4.351563 28.257813 5.90625 27.1875 C 8.992188 25.058594 14.785156 24.011719 24.8125 24 Z M 2 39 L 48 39 L 48 48 L 45 48 L 45 46 C 45 44.832031 44.703125 43.765625 43.96875 43.03125 C 43.234375 42.296875 42.167969 42 41 42 L 9 42 C 7.832031 42 6.765625 42.296875 6.03125 43.03125 C 5.296875 43.765625 5 44.832031 5 46 L 5 48 L 2 48 Z"/></svg>