<svg fill="#ffffff" xmlns="http://www.w3.org/2000/svg"  viewBox="0 0 50 50" width="50px" height="50px"><path d="M 18 0 C 13.570313 0 10 3.570313 10 8 C 10 12.429688 13.570313 16 18 16 C 20.964844 16 23.523438 14.386719 24.90625 12 L 37 12 C 37.265625 12.007813 37.527344 11.90625 37.71875 11.71875 L 39.71875 9.71875 C 39.90625 9.527344 40.007813 9.265625 40 9 L 40 7 C 40.007813 6.734375 39.90625 6.472656 39.71875 6.28125 L 37.71875 4.28125 C 37.527344 4.09375 37.265625 3.992188 37 4 L 35 4 C 34.734375 3.992188 34.472656 4.09375 34.28125 4.28125 L 33.5 5.0625 L 32.71875 4.28125 C 32.527344 4.09375 32.265625 3.992188 32 4 L 30 4 C 29.800781 3.996094 29.605469 4.050781 29.4375 4.15625 L 28.5 4.78125 L 27.5625 4.15625 C 27.394531 4.050781 27.199219 3.996094 27 4 L 24.90625 4 C 23.523438 1.613281 20.964844 0 18 0 Z M 18 2 C 21.371094 2 24 4.628906 24 8 C 24 11.371094 21.371094 14 18 14 C 14.628906 14 12 11.371094 12 8 C 12 4.628906 14.628906 2 18 2 Z M 16 6 C 14.894531 6 14 6.894531 14 8 C 14 9.105469 14.894531 10 16 10 C 17.105469 10 18 9.105469 18 8 C 18 6.894531 17.105469 6 16 6 Z M 25.75 6 L 26.6875 6 L 27.9375 6.84375 C 28.277344 7.074219 28.722656 7.074219 29.0625 6.84375 L 30.3125 6 L 31.5625 6 L 32.78125 7.21875 C 32.96875 7.414063 33.230469 7.523438 33.5 7.523438 C 33.769531 7.523438 34.03125 7.414063 34.21875 7.21875 L 35.4375 6 L 36.5625 6 L 38 7.4375 L 38 8.5625 L 36.5625 10 L 25.75 10 C 25.914063 9.359375 26 8.691406 26 8 C 26 7.308594 25.914063 6.640625 25.75 6 Z M 15.6875 18 C 13.6875 18 11.859375 19.226563 11.09375 21.09375 C 11.089844 21.109375 11.066406 21.109375 11.0625 21.125 L 8.125 28 L 7 28 C 5.355469 28 4 29.355469 4 31 C 4 32.644531 5.355469 34 7 34 L 7 47 C 7 48.644531 8.355469 50 10 50 L 13 50 C 14.644531 50 16 48.644531 16 47 L 16 46 L 34 46 L 34 47 C 34 48.644531 35.355469 50 37 50 L 40 50 C 41.644531 50 43 48.644531 43 47 L 43 34 C 44.644531 34 46 32.644531 46 31 C 46 29.355469 44.644531 28 43 28 L 41.875 28 L 38.9375 21.125 C 38.933594 21.109375 38.910156 21.109375 38.90625 21.09375 C 38.140625 19.226563 36.3125 18 34.3125 18 Z M 15.6875 20 L 34.3125 20 C 35.496094 20 36.617188 20.765625 37.0625 21.875 L 37.09375 21.90625 L 39.90625 28.5 L 38.9375 29.15625 L 38.9375 29.1875 C 38.109375 29.765625 37.222656 30 36.1875 30 L 13.8125 30 C 12.777344 30 11.890625 29.765625 11.0625 29.1875 L 11.0625 29.15625 L 10.09375 28.5 L 12.90625 21.90625 L 12.9375 21.875 C 13.382813 20.765625 14.503906 20 15.6875 20 Z M 7 30 L 8.6875 30 L 9.9375 30.84375 L 9.9375 30.8125 L 9.96875 30.8125 C 11.136719 31.621094 12.457031 32 13.8125 32 L 36.1875 32 C 37.542969 32 38.863281 31.621094 40.03125 30.8125 C 40.039063 30.808594 40.054688 30.816406 40.0625 30.8125 L 40.0625 30.84375 L 41.3125 30 L 43 30 C 43.554688 30 44 30.445313 44 31 C 44 31.554688 43.554688 32 43 32 L 41 32 L 41 44 L 9 44 L 9 32 L 7 32 C 6.445313 32 6 31.554688 6 31 C 6 30.445313 6.445313 30 7 30 Z M 14.5 35 C 12.578125 35 11 36.578125 11 38.5 C 11 40.421875 12.578125 42 14.5 42 C 16.421875 42 18 40.421875 18 38.5 C 18 36.578125 16.421875 35 14.5 35 Z M 35.5 35 C 33.578125 35 32 36.578125 32 38.5 C 32 40.421875 33.578125 42 35.5 42 C 37.421875 42 39 40.421875 39 38.5 C 39 36.578125 37.421875 35 35.5 35 Z M 14.5 37 C 15.375 37 16 37.625 16 38.5 C 16 39.375 15.375 40 14.5 40 C 13.625 40 13 39.375 13 38.5 C 13 37.625 13.625 37 14.5 37 Z M 35.5 37 C 36.375 37 37 37.625 37 38.5 C 37 39.375 36.375 40 35.5 40 C 34.625 40 34 39.375 34 38.5 C 34 37.625 34.625 37 35.5 37 Z M 9 46 L 14 46 L 14 47 C 14 47.554688 13.554688 48 13 48 L 10 48 C 9.445313 48 9 47.554688 9 47 Z M 36 46 L 41 46 L 41 47 C 41 47.554688 40.554688 48 40 48 L 37 48 C 36.445313 48 36 47.554688 36 47 Z"/></svg>