<svg fill="#000000" xmlns="http://www.w3.org/2000/svg"  viewBox="0 0 24 24" width="48px" height="48px"><path d="M 15.1875 0 C 9.210938 0 9.953125 4.792969 8.53125 6.40625 C 8.261719 6.152344 7.898438 6 7.5 6 C 6.671875 6 6 6.671875 6 7.5 C 6 8.328125 6.671875 9 7.5 9 C 8.042969 9 8.519531 8.714844 8.78125 8.28125 C 11.503906 5.261719 10.359375 2 14.90625 2 L 16.1875 0.59375 L 15.90625 0.3125 C 15.707031 0.113281 15.488281 0 15.1875 0 Z M 21.8125 0.03125 C 21.25 0.03125 20.710938 0.238281 20.3125 0.6875 L 19.5 1.5 L 22.59375 4.59375 L 23.40625 3.8125 C 24.304688 2.914063 24.304688 1.488281 23.40625 0.6875 C 22.957031 0.238281 22.375 0.03125 21.8125 0.03125 Z M 17.25 1.59375 L 3.40625 15.46875 L 3.4375 15.5 L 0.3125 22.09375 L 0.53125 22.3125 L 0 23.59375 C -0.101563 23.792969 0.105469 24.101563 0.40625 24 L 1.6875 23.46875 L 1.90625 23.6875 L 8.59375 20.5 L 8.5625 20.46875 L 22.34375 6.6875 Z M 3.8125 17.09375 L 6.90625 20.1875 L 2.09375 22.5 L 1.5 21.90625 Z"/></svg>