<svg xmlns="http://www.w3.org/2000/svg"  viewBox="0 0 80 80" width="30px" height="30px"><path fill="#c2e8ff" d="M25.902,70.383c-7.687,0-15.188-2.009-21.826-5.828c0.547,0.028,1.096,0.042,1.645,0.042 c7.21,0,14.013-2.345,19.673-6.781l1.106-0.867l-1.406-0.026c-6.185-0.115-11.64-3.979-13.826-9.701 c0.729,0.1,1.46,0.149,2.182,0.149c1.441,0,2.869-0.19,4.242-0.565l2.038-0.557l-2.072-0.416 c-6.807-1.366-11.803-7.267-12.093-14.164c2.03,0.99,4.271,1.547,6.532,1.62l1.748,0.056l-1.454-0.972 c-4.204-2.81-6.713-7.505-6.713-12.562c0-2.428,0.583-4.817,1.693-6.955c8.01,9.5,19.641,15.286,32.029,15.906l0.661,0.033 l-0.148-0.645c-0.258-1.12-0.389-2.277-0.389-3.44c0-8.322,6.771-15.093,15.092-15.093c4.159,0,8.174,1.737,11.017,4.766 l0.189,0.202l0.272-0.054c3.107-0.611,6.085-1.677,8.871-3.173c-1.231,2.982-3.286,5.392-6,7.018l-0.4,0.239l0.371,0.729 l0.375,0.012c2.52-0.308,4.917-0.901,7.281-1.805c-1.881,2.507-4.118,4.704-6.666,6.545l-0.218,0.157l0.011,0.27 c0.028,0.661,0.043,1.328,0.043,1.995C69.764,48.08,53.357,70.383,25.902,70.383z"/><path fill="#7496c4" d="M54.617,10.117c4.021,0,7.904,1.68,10.652,4.608l0.379,0.404l0.543-0.107 c2.676-0.527,5.257-1.385,7.704-2.559c-1.211,2.288-2.972,4.157-5.187,5.484l-0.803,0.481l0.427,0.833l0.028,0.054l0.318,0.621 l0.693-0.085c1.977-0.242,3.879-0.656,5.75-1.255c-1.612,1.914-3.449,3.62-5.488,5.094l-0.436,0.315l0.023,0.538 c0.029,0.676,0.043,1.34,0.043,1.975c0,10.529-4.073,21.19-11.176,29.248c-5.676,6.44-15.867,14.117-32.186,14.117 c-6.918,0-13.683-1.645-19.79-4.788c7.178-0.083,13.945-2.46,19.59-6.886l2.213-1.735l-2.811-0.052 c-5.699-0.106-10.757-3.503-13.049-8.611c0.467,0.04,0.933,0.06,1.396,0.06c1.488,0,2.96-0.196,4.374-0.583l4.073-1.114 l-4.14-0.831c-6.308-1.266-11.008-6.56-11.634-12.87c1.882,0.799,3.912,1.25,5.958,1.316l3.495,0.113l-2.908-1.943 c-4.064-2.717-6.491-7.257-6.491-12.146c0-2.096,0.45-4.162,1.309-6.052c8.079,9.26,19.617,14.888,31.888,15.503l1.322,0.066 l-0.297-1.29c-0.25-1.084-0.377-2.204-0.377-3.328C40.025,16.663,46.571,10.117,54.617,10.117 M54.617,9.117 c-8.61,0-15.593,6.983-15.593,15.593c0,1.222,0.139,2.413,0.402,3.553C26.469,27.614,14.98,21.404,7.288,11.97 c-1.34,2.302-2.109,4.981-2.109,7.841c0,5.409,2.752,10.181,6.935,12.977c-2.555-0.082-4.959-0.782-7.062-1.951 c0,0.067,0,0.13,0,0.196c0,7.556,5.374,13.857,12.508,15.289c-1.308,0.358-2.685,0.548-4.11,0.548 c-1.004,0-1.982-0.098-2.932-0.279c1.986,6.194,7.743,10.703,14.567,10.83c-5.336,4.183-12.059,6.675-19.364,6.675 c-1.257,0-2.499-0.073-3.721-0.219c6.9,4.424,15.096,7.005,23.902,7.005c28.68,0,44.362-23.76,44.362-44.365 c0-0.674-0.016-1.349-0.044-2.017C73.266,22.3,75.91,19.554,78,16.429c-2.77,1.23-5.628,2.048-8.75,2.43l-0.028-0.054 c3.221-1.929,5.513-4.906,6.678-8.548c-3.011,1.786-6.349,3.084-9.902,3.784C63.155,11.011,59.101,9.117,54.617,9.117L54.617,9.117 z"/></svg>