<svg enable-background="new 0 0 243.4 166.6" viewBox="0 0 243.4 166.6" xmlns="http://www.w3.org/2000/svg"><path d="m101.5 121.6s16.7 8.2 18.2 8.4 5.3-.3 6.2 0 13.6 3.3 15.5 3.6c2.1.2 4.2.2 6.3 0l4.2 4.5s-2.1 1.2-3 1c-.5-.1-1.1-.3-1.6-.6 0 0-5.6-.7-7.4-.9s-15.5-.6-18.8-1-3.8-1.1-5-1c-2.3.4-4.7.4-7 0" fill="#aa6f46"/><path d="m98.9 105.7c.5 1 .8 2.1 1 3.1 0 1.1-4 2.1-4.3 2-.8-1-1.4-2-2-3.1" fill="#f1f2f8"/><path d="m203.8 144.2h-9.9v-53.6-25.6h9.9z" fill="#b2b2bf"/><path d="m193.9 90.2 9.9-2.6v-14.3h-9.9" fill="#8f90a0"/><circle cx="198" cy="44.8" fill="#fff" r="33.7"/><path d="m231.7 44.8h-2.2c0 17.4-14.1 31.5-31.5 31.5s-31.5-14.1-31.5-31.5 14.1-31.5 31.5-31.5c8.4 0 16.4 3.3 22.3 9.2s9.2 13.9 9.2 22.3h4.5c0-19.9-16.1-36-36-36s-36 16.1-36 36 16.1 36 36 36 36-16.1 36-36z" fill="#00a698"/><circle cx="198.3" cy="44.7" fill="#e1ddec" r="25"/><path d="m66.5 140.9s-1.5-12.6-1.2-13.1l1.2-1.8c-.5-.8-.9-1.6-1.2-2.4-.7-3.6-1.1-7.2-1.3-10.8.1-1 4.2-2 7.8 1.1s6.2 5.7 6 7.7-.9 4.8-.9 5.7 7.4 9.4 8 12.4" fill="#111236"/><path d="m141.3 144.2s6.9-2.2 7.5-2.6 8.8-11.5 10.8-11.7 15.1 17.4 14.9 17.7-18.2 4.2-18.2 4.2" fill="#111236"/><path d="m167.7 144.2s-138.8-9-140.6-8.7-11.7 25.1-11.7 25.1l194.2.2s9.9-10.9 20.4-16.3c.9-.5 1.2-1.6.7-2.4-.3-.5-.8-.9-1.4-1l-35.3-1" fill="#d1435b"/><path d="m154.7 137.3c1 1.6 1.9 3.2 2.7 4.8.4 1.1-1 4.2 0 4.8s3.1 1 3.6.7 1.8-1.8 1.7-2.3-5.3-8.5-5.3-9.7" fill="#444560"/><path d="m193.9 140s-12.2-.4-14-.9-33.7-32.7-56.2-40.2c-1.7 1.3-2.7 3.4-2.7 5.5 0 0 37.4 22.6 46.7 39.8h12c2.6 0 12.2-4.1 14.2-4.2z" fill="#111236"/><path d="m157.9 130.6s-8-1.7-10.1-1.6-4.4 7.1-3.7 7.9 12.9 2.6 13.8 1.9 3.2-5.5 0-8.2z" fill="#ad3650"/><path d="m192 150.9h-4.4c-.8 0-1.4-.6-1.4-1.4s.6-1.4 1.4-1.4h4.4c.8 0 1.4.6 1.4 1.4 0 .7-.6 1.4-1.4 1.4z" fill="#ff9400"/><path d="m94.4 154c-30.4-3-48.2-12-55.8-16.9-18.3-1-.6-1.2-11.5-1.6-1.8-.1-11.7 25.1-11.7 25.1l125.2.1c-14.5-2.5-30.3-5.1-46.2-6.7z" fill="#ad3650"/><path d="m154.7 134.5c1.7.3 3.3.5 4.8.6.3-1.7-.3-3.4-1.6-4.5 0 0-8-1.7-10.1-1.6-.6 0-1.3.7-1.9 1.6 2.6 2 5.6 3.3 8.8 3.9z" fill="#d1435b"/><path d="m51.7 136.8c.6 8.3 2.7 16.3 6.3 23.8l-1.7.1s-3.7-8.1-4.7-12.7l-2.4-1.1s-2-8-1.8-10.3" fill="#912944"/><path d="m76.9 138.4s-45-15.7-45.9-15.7-3.2 2.3-3.3 3.5c-.1 1-.1 2.1 0 3.1-.8.6-1.4 1.5-1.6 2.6.1 1.2.4 2.5 1 3.6z" fill="#111236"/><path d="m15.4 160.5s1-3.1.6-3.6-4.5-.9-3.9-2 6.6-5.9 7.4-7.3-1.5-2.3-.7-3.7c0 0 .2-.9 2.7-2.2s5.6-6.2 5.6-6.2l1.2 13.6" fill="#ad3650"/><path d="m82.8 92.6c-3.1 1.5-4.9 4.9-4.5 8.3.3 2.4.7 4.7 1.4 6.9.9 2.8 3.6 3.7 6.4 7.1 0 0-.4.8 0 1.1s-1.6 4.2-2 6.3-2.5 6.8-2.4 8.4 1.5 8.9 1.5 8.9l29.8 1.4s-7.2-13.2-7.5-13.7-8.4-11.6-8.1-12.4 3.3-1.7 3.5-2.5-.5-3.4-.6-4.4c0 0-3.3 1.6-5.3.2-.1-.1-.1-.2-.1-.3l.1-.1 4.8-1.9-.6-1.4c.7-.4 1.3-.9 1.9-1.4.1-.3-4.5-4.3-5.1-6.1-.2-.7-1.6-5-4-5.8-1.4-.5-5.7-.3-9.2 1.4z" fill="#ce8e63"/><path d="m87.2 107.3c.5-.8.9-1.7 1.3-2.6.2-.7-1.2-4.2-1.8-4.5s-1.5-.4-1.6-1 .9-2.3.9-2.3l.4 2.1c.9-.4 1.7-1 2.3-1.7.5-.7 1.2-1.3 1.9-1.7 0 0-1 2.1-.4 2.2s3.8-2.6 4.3-2.9c.4-.4.8-.8 1.1-1.2 0 0-1.4-3.4-1.6-3.5-2.3-.2-4.6-.2-6.9 0-.5.2-6.1 2.9-7.8 4.4s-3.2 4.5-3.2 5.8.4 6.6 1.5 7.7 3.2 3.3 4 3.6c1.1.6 2.2 1.2 3.2 2l.7.8c.1-1.1.1-2.1 0-3.2-.2-.2-.9-.6-.7-.8s.4 0 .7-.7c.3-.8.5-1.7.7-2.6" fill="#111236"/><path d="m100.9 112.4s-4.1 1.8-4.9 1.8-7.7-1.8-7.7-1.8 6.8 3.4 7.6 3.6c1.1.5 2.1 1.2 3 1.9-.4-.9-.7-1.8-.9-2.7.2-.5 2.9-2.2 2.9-2.8z" fill="#aa6f46"/><path d="m102.5 154.6s-8.8-5.4-11.4-6.8-25-9.9-25-9.9l49.8 3.5z" fill="#ad3650"/><path d="m92.8 99.5s2.5-1.6 3.5-1.7 1.3 1.2 1.3 1.2 1 1.9 0 3.2c-.9 1.1-2.4 1.7-3.8 1.4-1-.3-1.9-1.5-2.1-1.5s-5.7 3.3-5.7 3.3l-.8-.8 6.1-3.4s-.3-.4-.2-.7c.6-.4 1.2-.7 1.7-1z" fill="#111236"/><path d="m87.1 106s-1.5-2-3-1.8-.9 3.5-.2 4.1 1.7.4 1.9.7.9.9 1.3.9.8-.6.7-1.4c-.1-.9-.4-1.7-.7-2.5z" fill="#aa6f46"/><path d="m107.4 130.7.9-4.3.6-2.1-8-3.6" fill="#5a489b"/><path d="m98.1 99.7c-.2.1-.5 0-.6-.2l-.3-.6c-.1-.2 0-.5.2-.6s.5 0 .6.2l.3.6c.1.2 0 .5-.2.6z" fill="#111236"/><path d="m87.8 107.2s-.7.3-1 0c-.4-.6-1-1.2-1.6-1.7-.4-.1-.8-.1-1.3 0 0 0-.2 1.3 0 1.6s.9.1 1 0 .1-.5.3-.5.6.4.6.4-.6 1-.3 1.1c.5.2.9.3 1.4.3.1 0 .2-.5.2-.5s.5.3.8.2" fill="#ce8e63"/><path d="m85 118.7s-3.1 7.4-3.4 8.2-.3 8.8-.5 9.2-.5 2.8-.5 2.8l35.7 2.5s-3.5-2.7-4.1-4-5.7-8.3-5.7-8.3c-.3-1-.6-2-1-3-.9-1.1-1.8-2.1-2.9-3.1l-3.9-3.2" fill="#5a489b"/><path d="m85 129.4s1.8 8.3 3.1 10.4 13 14.1 14.4 14.7 13.6-7.4 16.5-8.5 6-4 6.8-4 7 .3 7 .3c-1-1.2-2.1-2.1-3.4-2.9-1.8-1-3.3-1.9-4.8-1.9-1.1 0-2.2.2-3.2.5-.5 0-4.4 2.9-6.6 3.1s-9.7 3.6-10.2 3.5-4-7.8-4-9.3-2.3-9.5-2.3-9.5l-4.5-1.3" fill="#dd9e73"/><path d="m130.4 140.1h-5.8c-1.4 0-5.8 2.3-7.6 3-1.5.5-6.7.2-8.4 0-1.3.6-2.6 1.1-4 1.5-1.3.4-2.6.6-4 .8-.8-.1-6.5-7.9-6.3-9.1.1-.7 2.9-3.6 5.3-5.9-.6-2.3-1.3-4.5-1.3-4.5l-4.5-1.3-8.8 4.9s1.8 8.3 3.1 10.4 13 14.1 14.4 14.7 13.6-7.4 16.5-8.5 6-4 6.8-4 7 .3 7 .3c-.7-.9-1.5-1.6-2.4-2.3z" fill="#ce8e63"/><path d="m88.3 119.9s-2.9 3.7-3.2 5c-.3 2-.3 4 0 6 .2.1 5.9-3.4 7-3.6s7.2-.2 7.2-.8-3-5.2-6.6-6.3-4.4-.3-4.4-.3z" fill="#5a489b"/><path d="m85.3 115.1s5.1 2.8 6.2 2.7 6.5.2 6.6.2 2.4.6 2.4.6l3.1 4.7h-1.2c-.9-.6-1.9-1.1-3-1.5-.5 0-1.8 2.3-2.5 2.4s-6.5-2.9-7.4-3.3-5-2.3-5-2.8c.2-.9.5-2 .8-3z" fill="#a59bc8"/><path d="m70.4 116s23.8 5.5 25.2 6.9 13.7 18 13.7 18l4.8.4s-14.7-20.3-16-20.9-23.9-6.6-29-7.1" fill="#111236"/><path d="m98.9 57c-6 0-10.5 2-14.8 4s-8.6 4-14.2 4h-.8c-11.7-.4-17.7-3.4-24.8-3.4h-1.3c-7.8.5-19.4 6.4-19.4 6.4h109.1s-18.1-10-31.8-11c-.7 0-1.3-.1-2 0" fill="#e6effb"/><path d="m81.9 38.7s20.7-5 26.1-4.6 9 2.6 13 2.3 13.3-3.5 18.1-2.3 13 3.8 18.4 4.6z" fill="#cddff8"/><path d="m144 94.2s7-3.4 10.8-3.2 10.5 1.6 13.1 1.6 6.2-2.6 7.8-1.6 14.1 3.2 14.1 3.2z" fill="#cddff8"/><path d="m229.2 141c1.6.3 3 1.2 4 2.4 1.7 2-6 4.4-7 6.1s2.5 3.4 2.7 4.2-8.5 1.7-10 2.5c-1.2.7-2.3 1.6-3.3 2.5l-6 2" fill="#d1435b"/><path clip-rule="evenodd" d="m206.8 35.8c-.8-1.5-2.4-2.4-4.1-2.4h-8.7c-1.7 0-3.3.9-4.1 2.4l-1.8 3.2s0 .1-.1.1c-.2.3-.5.4-.9.3-.2-.1-.4-.1-.6-.1-1.3 0-2.4 1.1-2.4 2.4 0 1.1.8 2 1.8 2.3.3.1.6.3.6.7v8.9c0 1.3 1.1 2.4 2.4 2.4h1.2c1.3 0 2.4-1.1 2.4-2.4 0-.7.5-1.2 1.2-1.2h9.4c.7 0 1.2.5 1.2 1.2 0 1.3 1.1 2.4 2.4 2.4h1.2c1.3 0 2.4-1.1 2.4-2.4v-8.9c0-.3.3-.6.6-.7 1-.3 1.8-1.2 1.8-2.3 0-1.3-1.1-2.4-2.4-2.4-.2 0-.4 0-.6.1-.3.1-.7 0-.9-.3 0 0 0-.1-.1-.1zm-13.2 2.3c0-.7-.5-1.2-1.2-1.2s-1.2.5-1.2 1.2v3.5c0 .7.5 1.2 1.2 1.2h1.2.1 2.3c.7 0 1.2-.5 1.2-1.2s-.5-1.2-1.2-1.2c-.2 0-.2-.2-.1-.3.6-.5 1.4-.9 2.3-.9s1.7.3 2.3.9c.5.4 1.2.4 1.7-.1.4-.5.4-1.2-.1-1.7-1-.9-2.4-1.5-3.9-1.5s-2.8.6-3.9 1.5c-.2.3-.7.1-.7-.2zm9.5 8.3c0 .7.5 1.2 1.2 1.2s1.2-.5 1.2-1.2v-3.5c0-.7-.5-1.2-1.2-1.2h-3.5c-.7 0-1.2.5-1.2 1.2s.5 1.2 1.2 1.2c.4 0 .7.4.5.7-.6 1-1.7 1.6-3 1.6-.6 0-1.1-.1-1.6-.4-.3-.1-.5-.3-.8-.5-.5-.4-1.2-.4-1.7.1-.4.5-.4 1.2.1 1.7.4.3.8.6 1.3.9.8.4 1.7.6 2.6.6 1.9 0 3.7-.9 4.8-2.4 0-.1.1-.1.1 0z" fill="#5a489b" fill-rule="evenodd"/></svg>