<svg xmlns="http://www.w3.org/2000/svg" xmlns:xlink="http://www.w3.org/1999/xlink" viewBox="0 0 243.42 166.6"><defs><style>.cls-1{fill:none;}.cls-2{fill:#962f45;}.cls-3{fill:#ffb583;}.cls-4{fill:#ff7b59;}.cls-5{fill:#db8f5a;}.cls-6{fill:#ffcba4;}.cls-7{fill:#042759;}.cls-24,.cls-8{fill:#5a489b;}.cls-9{fill:#73cec6;}.cls-10{fill:#00a698;}.cls-11{fill:#444560;}.cls-12{fill:#fcaa72;}.cls-13{fill:#d1435b;}.cls-14{fill:#ffb54d;}.cls-15{fill:#68697f;}.cls-16{fill:#8f90a0;}.cls-17{fill:#a59bc8;}.cls-18{fill:#e1ddec;}.cls-19{fill:#ffe7d7;}.cls-20{fill:#fff;}.cls-21{fill:#d0eeec;}.cls-22{clip-path:url(#clip-path);}.cls-23{fill:#0770e3;}.cls-24{fill-rule:evenodd;}</style><clipPath id="clip-path"><path class="cls-1" d="M115.09,95.47a15.52,15.52,0,0,0-2.5.63c-2.54.93-4.42,5.09-4.2,6.3a9.91,9.91,0,0,1,3.37-4.21c2.14-1.23,6.53-3,6.53-3a21,21,0,0,0-3.2.3"/></clipPath></defs><g id="Layer_2" data-name="Layer 2"><path class="cls-2" d="M46.53,146.08s-10.24-57.9-8.11-74.93,63-16.26,70-13.62S127.22,90.15,128,95.11s7.07,42,9.4,43.31,1.75,6.24,4.72,7.12,16.59.88,21.06,1.73,9.15,12.17,9.15,12.17H111.93"/><path class="cls-3" d="M131,98.68s2.34,5.53,2.2,6.28-8.62-1.33-8.62-1.33"/><path class="cls-3" d="M146.9,100.45s-.12,20.08-.18,25.51-4.39,9.31-4.89,10.7-.57,2.84-2.06,3.11a7.51,7.51,0,0,1-5-1.2c-1.75-1.06-6.47-10.14-6.76-6.6,0,.12,4.39-14.78,4.34-15.78s4.75-15.06,4.89-16.42"/><path class="cls-4" d="M148.4,99.58s-.88,2-4.57,2.64-7.07-2.9-6.79-4.56,2.29-1.82,2.29-1.82"/><path class="cls-3" d="M113.85,80.19c.44.06,7.3,3.23,8.91,5.09s7.64,13,7.64,13.26-3.49,5.76-3.49,5.76l-7.07,1.35-6-25.46"/><path class="cls-5" d="M132.17,96.65s2.37,3.52,4,4,3.72.13,3.86-.65-1-2.93-1-2.93L133.57,92l-1.82,2.2"/><path class="cls-6" d="M151.35,91.62s-.87-4.17-2.56-4.43-4.9-1.64-6.86-1.9c-1.78-.24-3.52-1.19-5.48-.81s-3.07.44-4,1.54-2.92,10.15-4.73,13.21.06,2.72,1,2.69,3.09-3.52,4.32-5.15a14.05,14.05,0,0,0,1.7-2.82A6.78,6.78,0,0,0,137,97.66c1.69,1.1,3.66.63,4.48.63s1.89,2.27,4.39,1.72,2.77.81,3.47.14,1.41.72,2.32-.39S153.55,95,151.35,91.62Z"/><path class="cls-3" d="M137,89.91c.64-.24,1.64,1.63,3.35,1.21a20.82,20.82,0,0,1,3.18-.54A10.91,10.91,0,0,0,147,92.19c1.4.15.1.34.64,1.11s1.43.4,3.34,1.17c.84.34,1.34.75,1.38,2.62a4.53,4.53,0,0,1-.7,2.67c-.91,1.11-1.61-.27-2.32.39s-1-.7-3.47-.14-3.57-1.72-4.39-1.72-2.79.47-4.48-.63A6.78,6.78,0,0,1,134.77,94S136.32,90.16,137,89.91Z"/><path class="cls-7" d="M128,137.54s7.9,8.78,8.75,10,4.93,3.54,6,3.8,4.11-.26,5.81,0a51,51,0,0,1,5.62,1.39c.76.25,16.19,2.53,19,3.29a6.49,6.49,0,0,1,3.92,3.41H117.53l-4.2-8.38"/><path class="cls-5" d="M147.52,99.86c.89-.52,1.7-3.8,2-2.76-.12-.4-.85,2.83-1,3.08Z"/><polygon class="cls-5" points="145.91 100.01 146.68 94.87 146.57 94.25 144.61 100.05 145.91 100.01"/><path class="cls-5" d="M141.52,98.29a27.13,27.13,0,0,0,.58-3.05,23.23,23.23,0,0,0-.12-3.92l-.95,4.1-.58,3Z"/><path class="cls-8" d="M79.29,57A12.42,12.42,0,0,1,81.74,60c.51,1.27,2.12,4.67,2.12,4.67l-1.09-8.84"/><path class="cls-8" d="M95.9,19.09s10.43,5,12.16,6.62,6.47,8,7.39,11,3.06,20,2.85,23.81a49.43,49.43,0,0,1-1.55,9.16c-.54,2.33-2.93,6.58-3.57,8.34s-3.75,4.77-3.75,4.77l-13.21-.77-3.8-12.15"/><path class="cls-9" d="M106.41,78.79c-.25-.8,4.15.07,6.82-.63a31.85,31.85,0,0,0,5-1.79s1.93,9.1-2.61,13.67"/><path class="cls-9" d="M73.71,81.5s-.92.43-5.82,4.59c-1.83,1.55-9.91,6.14-9.6,7.62s17.94,36.11,19.17,38.79,2.9,10.93,3.1,13.59-.16,1.86,0,4.55c0,.69-.07-.27-.23-1.23s-.4-2-.55-1.07c-.24,1.56,1.21,4,2.5,3,4.08-2.91,14.58.76,17.21,1.45,3.58.93,11.89,2.12,18.48-.36s9.07-11.13,9.72-13.3-.33-12.54-.95-14.87c-.32-1.2.06-.29.37.64s.53,1.76,0,.86c-1-1.87-2.5-18.87-3-21.45s.65-8.17-1.54-11-5.3-3.44-7.49-7.88A15.12,15.12,0,0,0,109,78.72c-1-.5-7.16-1.49-7.16-1.49L73.71,81.5"/><path class="cls-10" d="M76.22,100.5s-4-9.11-8-10S57.36,93,56,93.06s.92,11.13,3.47,13.21"/><path class="cls-10" d="M80.56,146.09c-.2-2.66-1.87-10.92-3.1-13.59-.47-1-3.32-6.69-6.68-13.39C76.34,121,86,124,90.46,123.25c6.55-1.1,18.84-5.7,21.06-6.28s5.69.25,8.64-.77c1.53-.53,2.27-1.8,5-3.53.64,5.59,1.41,12,2,13.14,1,1.86-.62-2.34,0,0s1.18,11.2.53,13.37S124.62,150,118,152.48s-14.9,1.29-18.48.36c-2.63-.69-12.53-2.84-17.49-3.07-1.57-.07-2.46.13-2.22-1.43.28-1.8,1.22,2.8,1.12,1.39C80.74,147,80.75,148.75,80.56,146.09Z"/><path class="cls-6" d="M71.87,94.26s-3.45-3.59-6.24-1.36S59,96.06,58.85,99s1.64,29.26,1.23,31.49.11,11.54.09,12,12.5-.44,14.25-2,.93-8.51.64-15.33,1.51-13,2-19.33S71.87,94.26,71.87,94.26Z"/><path class="cls-11" d="M114.59,125.66l.73-21.75a1.31,1.31,0,0,1,1.14-1.25l16.86-2.09a1.28,1.28,0,0,1,1.19.5l.68.89L134,129.08a1.93,1.93,0,0,1-1.61,1.83l-5.67,1"/><path class="cls-6" d="M81.94,55.85s2.51,9,1.07,13.46-9.3,12.19-9.3,12.19,7.7,3.6,12.74,8.53S97.11,101.6,105,96.9s3.48-17,1.41-18.11a13.91,13.91,0,0,1-6.26-5.61c-1.83-3.14,0-8.12,0-8.12"/><path class="cls-12" d="M107.75,32.72s2.53,9.64,2.58,15.86-4.33,18-7,19.27S93,67.53,91,66.46s-8-6.28-8.59-7.26-3.84-10.77-3.84-10.77,3.19-1.64,7-7.85S96.1,29.77,99.94,28.43C99.94,28.43,103.91,31.91,107.75,32.72Z"/><path class="cls-3" d="M94.36,87.45c5.93,1.16,7.33,2.57,8.87,2.36,1.15-.17,4-4,5.52-6.76,1.31,4.32,1.46,10.75-3.75,13.85-7.89,4.7-13.51-2-18.55-6.87a39.8,39.8,0,0,0-5.93-4.66C84.33,85.86,90.5,86.69,94.36,87.45Z"/><path class="cls-9" d="M124.89,138.17s-2.38,3.27-9.37,6.28S99,149,99,149s8.4,2.91,15.53-.35S125.05,139.09,124.89,138.17Z"/><path class="cls-13" d="M46.53,146.08s59.32,2.43,65.4,4.42,6.78,9,6.78,9h-65S53.41,154.22,46.53,146.08Z"/><path class="cls-3" d="M74.37,139.4s20.8-5.42,25.11-8.26,8.71-9.34,10-10.13,5.07-1.33,5.07-1.33-.22,5.52.08,6,9.25.3,11.29-.23,9-2.73,9.17-2.5a2.78,2.78,0,0,1-1.38,2.72s1.34-.07,1.1,1.08-2.22,2-2.79,2.19-.2,1-1.62,1.79-2.09,2.91-3.37,3.52-4.73,2.34-7.33,2.47-3.67-.13-4.82,0-10.59,3-11.7,3.35S82,154.68,76.59,156.31s-13,1.69-14.15.38a18.27,18.27,0,0,1-2.71-6.87c0-1,.49-7,.47-8.61a5.21,5.21,0,0,1,.6-3.09C61.13,137.83,74.37,139.4,74.37,139.4Z"/><path class="cls-6" d="M59.83,148.18a17.9,17.9,0,0,0,5.24,1.5c2.86.19,6.62-1.55,9.19-3.16s6.18-2.18,13.66-5.09c5.43-2.1,10.63-8.23,13.08-11.45,3.78-3.15,7.34-8.28,8.44-9,1.25-.78,5.07-1.33,5.07-1.33s-.22,5.52.08,6,9.25.3,11.29-.23,9-2.73,9.17-2.5a2.12,2.12,0,0,1-.84,2.63s.8,0,.56,1.17-2.22,2-2.79,2.19-.2,1-1.62,1.79-2.09,2.91-3.37,3.52-4.73,2.34-7.33,2.47-3.67-.13-4.82,0-10.59,3-11.7,3.35S82,154.68,76.59,156.31s-13,1.69-14.15.38a18.27,18.27,0,0,1-2.71-6.87C59.74,149.56,59.78,149,59.83,148.18Z"/><path class="cls-5" d="M134.18,125.71a49.54,49.54,0,0,1-7.56,2.47c-2.27.31-8.5.83-8.5.83s6.56.52,8.47,0A73.15,73.15,0,0,0,134.18,125.71Z"/><path class="cls-12" d="M108.66,36.59S100.4,35.47,98,36.1,90,42.81,86.7,43.68s-5.45,1.43-5.45,1.43l8.28-12.76L102,27.88l5.44,3.68"/><path class="cls-6" d="M99.59,35.68a52.48,52.48,0,0,1,1.46,5.56c.49,2.56.13,4.53.77,6.49a34,34,0,0,0,2.86,5.43s-2.06,1.67-3.22,2.48-.52,6.57.25,9,1.67,3.16,1.67,3.16-1.77,1.43-7.4.47-11.84-6.51-11.84-6.51a26.42,26.42,0,0,1-1.73-2.61c-.31-.67-3.58-7.1-3.58-7.1S83.73,39.78,84,39.78s6.82-3.65,6.82-3.65"/><path class="cls-5" d="M132,128.92a65.06,65.06,0,0,1-6.12,2.46,81.59,81.59,0,0,1-8.33.75s6.41.5,8.43,0S132,128.92,132,128.92Z"/><path class="cls-5" d="M128.91,132.26s-3.92,1.5-5.06,1.8-5.81,1.06-5.81,1.06a19.19,19.19,0,0,0,5.71-.38A29,29,0,0,0,128.91,132.26Z"/><path class="cls-14" d="M102.31,128.81a12.39,12.39,0,0,0-1,5.08,15.64,15.64,0,0,0,2.56,5.51,1.44,1.44,0,0,0,.85.34l1.44-.64s-.22,1.35-.64,1.55a15.91,15.91,0,0,1-3.39,1.36c-.48-.06-3.74-4.26-4.24-5.44a14.53,14.53,0,0,1-.24-5.56c.23-.53,3.51-2.71,4-2.93a4.45,4.45,0,0,1,1.56-.17"/><path class="cls-15" d="M116.45,125.91l.65-20.71a1.3,1.3,0,0,1,1.14-1.25l17-2-.68-.89a1.28,1.28,0,0,0-1.19-.5l-16.86,2.09a1.31,1.31,0,0,0-1.14,1.25l-.73,21.75Z"/><path class="cls-16" d="M124.22,105.83l-4.91.54a.65.65,0,0,0-.57.64l0,1.78a.65.65,0,0,0,.73.65l4.92-.58a.65.65,0,0,0,.57-.64v-1.74A.65.65,0,0,0,124.22,105.83Z"/><path class="cls-3" d="M79.42,52.05s.13-3.32-.85-3.62-3.85-1.71-4.25-1.49-.37,5.42.59,6.3a17.29,17.29,0,0,0,3,1.92s.79,2.06,1.49,2.21,2.32.32,2.32.32"/><path class="cls-17" d="M107.75,32.72s-6.57-1.95-8.11-1.91-5.87,1.91-6.76,3.24-6.4,8.12-7.94,10.59a29.84,29.84,0,0,1-4.44,5.3c-.4.35-3.32,0-4.11-.74s-2.07-2.26-2.07-2.26l-.18,3.34S73,44,72.83,43.08s-1.07-5.8-2.09-8,5.31-11.06,9.81-13.82,12.09-3.05,14.55-2.48,9,3.64,10.11,4.21a9.15,9.15,0,0,1,3.47,3.77C109.36,28.38,109.39,31.83,107.75,32.72Z"/><path class="cls-8" d="M81.88,47.51a61.61,61.61,0,0,0,.86,6.83A16,16,0,0,0,84.37,57s-3.44-1.32-4.53-3.11-2.7-5.14-2.7-5.14"/><path class="cls-17" d="M107.75,32.72s2.67-1.83,5.29-.57c0,0-4.06-6.95-7.83-9.12"/><path class="cls-18" d="M91.81,31.23s-6.59,3.37-9.27,3.83-3.74-2.79-4.72-3S75.3,31.73,75,31a25.33,25.33,0,0,1-.51-3.88s.85,1.85,1.65,2.12,4.47-.56,4.47-.56a5.09,5.09,0,0,0,4.11,2.2C87.69,31,91.81,31.23,91.81,31.23Z"/><path class="cls-10" d="M128,135s2.37,5.26,4.46,7.65,4.23,5,4.23,5-5,4.57-7.37,5.19-11.54,3.43-11.54,3.43l-4.48-5.11"/><path class="cls-9" d="M58.59,94.44s-.35,3.91,1.15,2.46,4.41-2.45,10.23-.63S76.46,107,76.46,107s.27-7.17-1.28-10.51-5.86-7.36-8-6.75S56,93.06,56,93.06Z"/><path class="cls-3" d="M98.15,68.6S93.12,67,90,65.86s-6.58-6.54-6.58-6.54,2.57,6.08,6,7.92S98.15,68.6,98.15,68.6Z"/><path class="cls-8" d="M109.29,41a20.13,20.13,0,0,0-3.83-1.07c-1.18-.07-2.56.25-2.7-.09s-.13-.22.59-.75a5.5,5.5,0,0,1,4-.18A2.65,2.65,0,0,1,109.29,41Z"/><path class="cls-8" d="M89.51,44.08a25.15,25.15,0,0,1,3.95-2.79c1.31-.56,3-.76,3-1.2s.06-.31-1-.62-3.4.44-4.63,1.42A3.25,3.25,0,0,0,89.51,44.08Z"/><path class="cls-8" d="M88.29,40s4.72-5.92,9.64-7.28,6.72,1.35,8.12,1.23,2.37-1.9,2.37-1.9-2.76-3.05-3.35-3.43-4.65.15-6.27.73-2.88,1.45-3.67,1.66-3,2.51-4.29,3.26"/><path class="cls-6" d="M86.54,53.15c.27-1.29,3.26-1.23,6.52-1.17s1.07,3.33-1.91,4S86.16,54.93,86.54,53.15Z"/><path class="cls-9" d="M67.14,89.77s-1.61-.86-2.69-1.3-6.24,3.93-6.24,3.93Z"/><path class="cls-8" d="M113.91,33.56a32.83,32.83,0,0,1,3.2,7.35c1,3.78,1.62,13.33,1.54,20S115,74.09,115,74.09a62,62,0,0,0,1.72-24.27C115,36.68,113.91,33.56,113.91,33.56Z"/><path class="cls-8" d="M81.82,48.5a16.78,16.78,0,0,1-6.29-5,72.15,72.15,0,0,1-4.91-9s-1.16,6.92,1.19,11.38,2.37,4.92,2.37,4.92.95-2.24,1.18-2.08a26.65,26.65,0,0,1,2.08,1.84c.22.29,1.75,6,6.93,6.5,0,0-2.26-5.27-2.41-8.56"/><path class="cls-5" d="M136.23,96.93s.44-2.39.49-3A1.72,1.72,0,0,0,136,92.6l-.71.12s-1.41,2.92-1.82,3.49,2.14,2.72,2.14,2.72"/><path class="cls-19" d="M130.73,100.05s-1.27.44-1.9,0a10.64,10.64,0,0,1-1.09-.85,8,8,0,0,0-.89,2.14L130,101Z"/><path class="cls-8" d="M70.74,35.12s5.89,11.39,13.1,11.1a13.36,13.36,0,0,1,1.83,5.19,11.71,11.71,0,0,0,2,5s-3.32-1.67-3.75-3.6-3.57-2.39-3.57-2.39-7.3-6.55-7.52-7.38"/><path class="cls-8" d="M104.25,32.82S102.56,29.74,95,31.5s-9.9,12-12.75,13.19S76,44.08,76,44.08l7.83,3.1s3.41-5.1,6.22-9.11S101.42,32.06,104.25,32.82Z"/><path class="cls-20" d="M92.38,59c-.18.07,1.61,3,2.86,3.54s4.1,0,4.88-.92.83-1.85.69-1.94A77.6,77.6,0,0,0,92.38,59Z"/><path class="cls-21" d="M115.09,95.47a15.52,15.52,0,0,0-2.5.63c-2.55.93-4.42,5.09-4.2,6.3a9.91,9.91,0,0,1,3.37-4.21c2.14-1.23,6.53-3,6.53-3a21,21,0,0,0-3.2.3"/><g class="cls-22"><rect class="cls-21" x="107.82" y="95.81" width="10.98" height="5.72" transform="translate(-14.89 20.31) rotate(-9.61)"/></g><path class="cls-23" d="M56,93.06a15,15,0,0,0,7.55.49c4.1-.83,12.93,1.35,12.9,13.48,0,0-.75-6.75-4.56-6.85s-3.62,1.48-7.81.23S57,97,56,93.06Z"/><path class="cls-9" d="M118.18,76.37s2.95,2.42,3.13,4.58-.84,2-1,3.49.4,3,.3,4A6.31,6.31,0,0,1,119,91.1l-5.24-2"/><path class="cls-8" d="M86.64,43.05s-1.14,2-.68,3.29,1,1.56,1,2.34a13.52,13.52,0,0,1-.29,1.87,8.54,8.54,0,0,0-1.07-2c-.53-.6-1.24-.84-1.75-1.41a2.28,2.28,0,0,1-.57-1"/><path class="cls-3" d="M59.44,112.32s-.09-2.1,6.7-3.54,10.28-.54,10.28-.54-.45-7.08-2.67-9.79-14.84-1.92-14.84-1.92S57.82,102.58,59.44,112.32Z"/><path class="cls-10" d="M56,93.06a15,15,0,0,0,7.55.49c4.1-.83,16.15-.55,13,16.49,0,0-.85-9.76-4.66-9.86s-3.62,1.48-7.81.23S57,97,56,93.06Z"/><path class="cls-13" d="M46.53,146.08a4.34,4.34,0,0,0-3.3,1.72c-1.49,1.81-2.88,6.57-1.39,11.67H61.91"/><path class="cls-7" d="M91.24,47.68s.26,2.08,3.14,2S97,46.37,97,46.37a4,4,0,0,1-2.89,2.35A2.77,2.77,0,0,1,91.24,47.68Z"/><path class="cls-7" d="M103.1,46.43s.26,2.09,3.15,2,2.62-3.34,2.62-3.34A4,4,0,0,1,106,47.48,2.8,2.8,0,0,1,103.1,46.43Z"/><circle class="cls-18" cx="165.06" cy="44.71" r="25.05"/><path class="cls-24" d="M183.08,45.68a2.18,2.18,0,0,1-1.61,1.91,4.58,4.58,0,0,0-3.3,4.1A4.68,4.68,0,0,0,182,55.93a1.32,1.32,0,0,1,1.08,1.22A1.09,1.09,0,0,1,182,58.24H148.13A1.09,1.09,0,0,1,147,57.15a1.32,1.32,0,0,1,1.08-1.22A4.68,4.68,0,0,0,152,51.69a4.58,4.58,0,0,0-3.31-4.1A2.18,2.18,0,0,1,147,45.68V44.59a2.16,2.16,0,0,1,1.61-1.91,4.59,4.59,0,0,0,3.31-4.1,4.68,4.68,0,0,0-3.84-4.25A1.31,1.31,0,0,1,147,33.12,1.09,1.09,0,0,1,148.13,32H182a1.09,1.09,0,0,1,1.09,1.09A1.31,1.31,0,0,1,182,34.33a4.68,4.68,0,0,0-3.83,4.25,4.59,4.59,0,0,0,3.3,4.1,2.16,2.16,0,0,1,1.61,1.91Zm-24.57-7.1a1.64,1.64,0,1,0-3.28,0v4.91a1.63,1.63,0,0,0,1.64,1.64h4.92a1.64,1.64,0,0,0,0-3.27h-.6a4.92,4.92,0,0,1,6.89-.44A1.64,1.64,0,0,0,170.23,39a8.19,8.19,0,0,0-11.72,1Zm13.11,11.47a1.64,1.64,0,1,0,3.27,0V45.13a1.64,1.64,0,0,0-1.64-1.64h-4.91a1.64,1.64,0,0,0,0,3.28h1.15a4.91,4.91,0,0,1-6.83,2.76,5,5,0,0,1-1.06-.71,1.64,1.64,0,1,0-2.16,2.46,8.21,8.21,0,0,0,12.18-1.52Z"/></g></svg>