<svg xmlns="http://www.w3.org/2000/svg" viewBox="0 0 243.42 166.6"><defs><style>.cls-1,.cls-10{fill:#5a489b;}.cls-2{fill:#a59bc8;}.cls-3{fill:#e1ddec;}.cls-4{fill:#3f3377;}.cls-5{fill:#e18b96;}.cls-6{fill:#ffebd0;}.cls-7{fill:#ffab95;}.cls-8{fill:#723143;}.cls-9{fill:#2c2466;}.cls-10{fill-rule:evenodd;}</style></defs><g id="Layer_2" data-name="Layer 2"><polyline class="cls-1" points="153.74 19.84 163.39 30.05 163.39 72.15 174.08 83.47 174.08 159.72 145.8 159.72"/><polygon class="cls-2" points="121.58 71.75 121.58 19.84 153.74 19.84 153.74 71.75 160.93 71.75 160.93 159.72 114.01 159.72 114.01 71.75 121.58 71.75"/><path class="cls-3" d="M150.72,24V34.09a.57.57,0,0,1-.55.57H127.86a.52.52,0,0,1-.38-.17l-3.09-3.26a.62.62,0,0,1-.16-.41V24a.56.56,0,0,1,.54-.58h25.4A.57.57,0,0,1,150.72,24Z"/><rect class="cls-1" x="142.77" y="25.05" width="5.68" height="6.01"/><path class="cls-1" d="M136,31.06h5.68v-6h-2.27a3.5,3.5,0,0,0-3.41,3.6Z"/><rect class="cls-1" x="125.37" y="25.05" width="8.7" height="0.8"/><rect class="cls-1" x="125.37" y="27.45" width="8.7" height="0.8"/><rect class="cls-1" x="143.91" y="38.27" width="2.27" height="32.27"/><rect class="cls-1" x="135.96" y="38.27" width="2.27" height="32.27"/><rect class="cls-1" x="128.39" y="38.27" width="2.27" height="32.27"/><rect class="cls-1" x="114.01" y="77.76" width="46.92" height="3.21"/><rect class="cls-1" x="114.01" y="85.77" width="46.92" height="3.21"/><rect class="cls-1" x="114.01" y="94.18" width="46.92" height="3.21"/><rect class="cls-1" x="114.01" y="102.2" width="46.92" height="3.21"/><rect class="cls-1" x="114.01" y="110.21" width="46.92" height="3.21"/><rect class="cls-1" x="114.01" y="118.23" width="46.92" height="3.21"/><rect class="cls-1" x="114.01" y="126.64" width="46.92" height="3.21"/><rect class="cls-1" x="114.01" y="134.65" width="46.92" height="3.21"/><rect class="cls-1" x="114.01" y="142.67" width="46.92" height="3.21"/><rect class="cls-1" x="118.18" y="153.09" width="11.35" height="6.61"/><path class="cls-4" d="M116.06,159.72c.14-.48-.62-4.89-1.75-5.69a2,2,0,0,0-2.65.4c-.38.4-1.14.8-1.89,1.6a17.85,17.85,0,0,0-1.9,3.61l8.19.08"/><polyline class="cls-5" points="51.83 43.12 42.41 54.42 42.41 159.34 58.44 159.34"/><polyline class="cls-5" points="61.95 25.45 60.73 27.31 60.73 41.81 65.02 41.81 64.34 44.04 66.14 44.04 66.86 41.81 84.66 41.81 85.36 44.04 86.92 44.04 85.89 41.81 88.03 41.81 89.26 40.32"/><path class="cls-6" d="M78.22,25.45H62V40.32H89.26V38.83C89.26,31.44,84.32,25.45,78.22,25.45Z"/><path class="cls-5" d="M84.35,38.09a.47.47,0,0,1-.27-.08.82.82,0,0,1-.28-1l.08-.17a2.71,2.71,0,0,0,.3-1.77,2.82,2.82,0,0,0-1.59-1.5c-1.08-.52-1.47,0-2.33,1.29s-1.91,2.86-4.19,2.86a2.92,2.92,0,0,1-2.31-1.1,4.93,4.93,0,0,1-3.63.34,3.13,3.13,0,0,1-1.36-.71,8.11,8.11,0,0,1-1,1A.55.55,0,0,1,67,37a.84.84,0,0,1,.16-1,7.81,7.81,0,0,0,.76-.76,15.2,15.2,0,0,1-2-7.18c-.08-1.16-.19-5,1.37-5.68.81-.34,1.68.3,2.59,1.91a9.93,9.93,0,0,1,.61,9.38,11.3,11.3,0,0,1-.82,1.48,1.89,1.89,0,0,0,.74.36,4.3,4.3,0,0,0,2.7-.13,5.65,5.65,0,0,1-.26-.88c-.38-1.73-.17-4,.77-4.68a1,1,0,0,1,1.41.32,4.66,4.66,0,0,1,.46,4.6,4.35,4.35,0,0,1-.63,1,1.78,1.78,0,0,0,1.27.48c1.69,0,2.44-1.12,3.23-2.31s1.79-2.68,3.75-1.73a4,4,0,0,1,2.28,2.37,4.23,4.23,0,0,1-.37,3l-.06.15A.61.61,0,0,1,84.35,38.09Zm-10.24-6.9A5.25,5.25,0,0,0,74,34.34l0,.17a2.77,2.77,0,0,0,.26-.48A2.94,2.94,0,0,0,74.11,31.19Zm-6.45-7.42h0c-.27.12-.73,1.5-.56,4.17a14.34,14.34,0,0,0,1.64,6.17,8.24,8.24,0,0,0,.09-9C68.16,24,67.77,23.77,67.66,23.77Z"/><rect class="cls-7" x="51.83" y="43.3" width="47.25" height="116.02"/><rect class="cls-5" x="51.83" y="52.59" width="47.25" height="4.83"/><rect class="cls-5" x="51.83" y="63.38" width="47.25" height="4.83"/><rect class="cls-5" x="51.83" y="74.16" width="47.25" height="4.83"/><rect class="cls-5" x="51.83" y="84.94" width="47.25" height="4.83"/><rect class="cls-5" x="51.83" y="95.36" width="47.25" height="4.83"/><rect class="cls-5" x="51.83" y="106.14" width="47.25" height="4.83"/><rect class="cls-5" x="51.83" y="116.92" width="47.25" height="4.83"/><rect class="cls-5" x="51.83" y="127.71" width="47.25" height="4.83"/><rect class="cls-5" x="51.83" y="138.12" width="47.25" height="4.83"/><rect class="cls-5" x="62.41" y="150.5" width="10.25" height="8.84"/><path class="cls-8" d="M102.37,159.34s-1.8-2-2.34-2.63-1.63,0-1.63,0-1.08-2-1.63-2c-.35,0-1.6,0-2.39-.06a34.46,34.46,0,0,0-.86-5.09v0l-.06-.22-.15-.54c0-.19-.11-.39-.17-.57s-.1-.34-.16-.51l-.18-.53-.18-.47c-.06-.17-.13-.33-.2-.49l-.18-.44-.11-.24-.08-.16c-.12-.27-.25-.52-.38-.77l-.11-.23c-.17-.31-.34-.6-.52-.89l-.11-.17-.42-.63-.17-.23c-.14-.19-.27-.36-.41-.53l-.14-.17c-.18-.22-.36-.43-.54-.62l-.07-.07c-.16-.16-.31-.32-.47-.46l-.16-.15-.38-.33L88,140l-.5-.37h0c-.25-.17-.48-.32-.7-.45l0,0a5.46,5.46,0,0,0,1,.1,6.25,6.25,0,0,0,4.08-1.59,9.42,9.42,0,0,0-3.8-1.31,3.89,3.89,0,0,0-2.71,1.31c0-2-2.17-2.62-2.17-2.62-4.33,0-6,2.62-6,2.62a6.53,6.53,0,0,1,2.47-.45,11.19,11.19,0,0,1,4.58,1.11,15.86,15.86,0,0,0-1.38,1.31,12.85,12.85,0,0,0-3.24,5.92,8.65,8.65,0,0,0-.26,2.62l2.17-2v-1.31l.76.66a7.65,7.65,0,0,0,3.2-5.92,1.89,1.89,0,0,0,0-.27h0l0,0,.5.32.47.35.26.19c.18.15.36.3.53.46l.15.13c.21.21.42.42.62.64l.17.19.42.5.2.27.34.45.2.3.3.47.19.3.29.51.15.28c.12.22.23.45.34.68l.06.12c.16.34.32.69.46,1l.1.23c.13.35.27.69.39,1l0,.09c.11.33.22.65.31,1l.07.22c.1.34.2.67.28,1l.05.17.21.87,0,.17c.07.31.13.62.19.92l0,.19c0,.26.1.52.14.77l0,.11c0,.27.08.53.12.77v.08a4.71,4.71,0,0,0-.83-.77,5.71,5.71,0,0,1-2.17-5.26s-1.63,1.32-1.08,4.6a5,5,0,0,0,.76,2.07,3.17,3.17,0,0,0-1.13-.23,2,2,0,0,0-.72.13,15.52,15.52,0,0,0-3.25,2,2.76,2.76,0,0,0-2.08-.84,3.74,3.74,0,0,0-1.17.19,4.07,4.07,0,0,0-2.71,2,2.33,2.33,0,0,0-1.13-.3,2,2,0,0,0-1,.3,2.67,2.67,0,0,0-1.27,1.31h26.92Z"/><path class="cls-8" d="M40.52,159.34H64.26s-1-4.11-4.1-4.83a5.87,5.87,0,0,0-5.06,1,21.64,21.64,0,0,0-4.68-1.14c-1.48,0-3.45,2.5-3.45,2.5S42.2,155.48,40.52,159.34Z"/><path class="cls-9" d="M174.52,159.72h-23l.71-.54s.76-1.29,1.51-1.29h1.52c.75,0,.38-1.2,1.13-1.6s2.65.4,2.65.4-2.27-2.4-1.13-2.4,3.4,2,3.78,2a31,31,0,0,0,3.19-2.06c-1.48-5.78.34-17.18,1.65-21.48a3.37,3.37,0,0,1-1.42.92c-1.33.36-4.34,4.61-4.34,4.61a23.37,23.37,0,0,1,1.67-5.67c.66-1.17,2.5-1.88,3.67-2.22a2.91,2.91,0,0,1,0-.31,15.36,15.36,0,0,0-4,0c-1.33.36-1-1.06-1.67-1.41s0,1.41-1,1.06-5.69-1.06-5.69-1.06l3.68-2.13,2,1.07-1-1.42h5a5.16,5.16,0,0,1,3,1.49,4,4,0,0,1,.55-1.09c.38-.4,1.51-2,1.51-2l.76,1.6.38-1.2a5.71,5.71,0,0,0,.75,1.6,4,4,0,0,1,.52,2,9.76,9.76,0,0,1,4.78-.8c2.65.4,6.81,4.81,6.81,4.81l-5.3-1.6c-2.64-.8-2.27-1.61-3.4-1.2a8.49,8.49,0,0,1-3,.09c0,.11,0,.21-.08.31a1.71,1.71,0,0,1-.59.81,7.69,7.69,0,0,1,3.9,1.41,19,19,0,0,1,4.26,5.39s-7.46-1.22-9.89-5.77a121.4,121.4,0,0,0-1.84,13.78,18.28,18.28,0,0,0,1.13,7.77,17.75,17.75,0,0,1,1.9,1.05,2.32,2.32,0,0,0,1.22.07,4.37,4.37,0,0,0,.67-.47c.38-.4,2.65.4,2.65.4a3.6,3.6,0,0,1,1.51.4,13.18,13.18,0,0,1,2.27,2.4,32.8,32.8,0,0,1,3.91,2.21l-1,0Z"/><circle class="cls-3" cx="182.72" cy="44.71" r="25.05"/><path class="cls-10" d="M170.65,34.05a2,2,0,0,0-1,1.83V42.8a1.5,1.5,0,0,1-1.5,1.5H168A1.66,1.66,0,0,0,166.35,46V56.57a1.23,1.23,0,0,0,1.22,1.23,1.25,1.25,0,0,0,1.22-1l.86-4h26.4l.86,4a1.23,1.23,0,0,0,2.44-.2V46a1.66,1.66,0,0,0-1.65-1.68h-.15a1.5,1.5,0,0,1-1.5-1.5V39.23h0V35.88a2,2,0,0,0-1-1.83l-2.92-1.28a22.79,22.79,0,0,0-18.55,0Zm4.7,1.25a1.5,1.5,0,0,1,1.5,1.5v1.26a7.5,7.5,0,0,1,10.73-.92,1.5,1.5,0,1,1-2,2.26,4.46,4.46,0,0,0-3-1.1,4.52,4.52,0,0,0-3.36,1.5h.55a1.5,1.5,0,0,1,0,3h-4.5a1.5,1.5,0,0,1-1.5-1.5V36.8A1.5,1.5,0,0,1,175.35,35.3Zm15,13.5a1.5,1.5,0,0,1-1.5-1.5V47a7.51,7.51,0,0,1-9.55,2.48,7.66,7.66,0,0,1-1.6-1.09,1.5,1.5,0,1,1,2-2.25,4.22,4.22,0,0,0,1,.65,4.35,4.35,0,0,0,2,.48,4.51,4.51,0,0,0,4.24-3h-1.05a1.5,1.5,0,0,1,0-3h4.5a1.5,1.5,0,0,1,1.5,1.5v4.5A1.5,1.5,0,0,1,190.35,48.8Z"/></g></svg>