<?xml version="1.0" encoding="UTF-8"?><svg version="1.1" xmlns="http://www.w3.org/2000/svg" xmlns:xlink="http://www.w3.org/1999/xlink" viewBox="0 0 1500 1500" width="1500" height="1500" x="0px" y="0px">
              
              <!-- ITEM 0 -->
<g>
    <defs>
        
        <clipPath id="clip-path-id-viewbox-item-0">
            <rect x="0.0" y="0.0" width="259.83643" height="235.67822"/>
        </clipPath>
    </defs>
    <g transform="translate(980.0 278.0) rotate(0.0 -396.5 360.0) scale(-3.0519200098308 3.055012890032859)">
        <g clip-path="url(#clip-path-id-viewbox-item-0)" transform="translate(-0.0 -0.0)">

  
  <g>
    <g>
      <path d="M259.08646,188.74939V218.9331A15.99938,15.99938,0,0,1,243.082,234.92836H16.75461A15.99939,15.99939,0,0,1,.75017,218.9331V30.787H31.099V86.86215a33.9637,33.9637,0,0,0,33.96241,33.96241h41.905A33.9637,33.9637,0,0,1,140.92882,154.787a33.9598,33.9598,0,0,0,33.96241,33.96242Z" style="         fill: #fcecb9;       "/>
      <path d="M259.08646,30.787V188.74939H174.89123A33.9598,33.9598,0,0,1,140.92882,154.787a33.9637,33.9637,0,0,0-33.96241-33.96241h-41.905A33.9637,33.9637,0,0,1,31.099,86.86215V30.787Z" style="         fill: #ffedc5;       "/>
      <path d="M259.08646,16.75448V30.787H31.099V.75005H243.082A16.00721,16.00721,0,0,1,259.08646,16.75448Z" style="         fill: #5e95ce;       "/>
      <path d="M31.099.75005V30.787H.75017V16.75448A16.00722,16.00722,0,0,1,16.75461.75005Z" style="         fill: #4377a5;       "/>
    </g>
    <g>
      <path d="M243.082,235.67822H16.75439A16.76873,16.76873,0,0,1,0,218.93311V16.75439A16.77352,16.77352,0,0,1,16.75439,0H243.082a16.77353,16.77353,0,0,1,16.7544,16.75439V218.93311A16.76874,16.76874,0,0,1,243.082,235.67822ZM16.75439,1.5A15.27188,15.27188,0,0,0,1.5,16.75439V218.93311a15.26709,15.26709,0,0,0,15.25439,15.24511H243.082a15.2671,15.2671,0,0,0,15.2544-15.24511V16.75439A15.27189,15.27189,0,0,0,243.082,1.5Z"/>
      <path d="M259.08643,31.03711H.75a.25.25,0,0,1,0-.5H259.08643a.25.25,0,0,1,0,.5Z"/>
      <path d="M259.1416,188.99951H174.89111a34.20965,34.20965,0,0,1-34.2124-34.21289,33.75043,33.75043,0,0,0-33.7124-33.71191H65.06152A34.2512,34.2512,0,0,1,30.84912,86.8623V.75a.25.25,0,0,1,.5,0V86.8623a33.75055,33.75055,0,0,0,33.7124,33.71241h41.90479a34.25109,34.25109,0,0,1,34.2124,34.21191,33.70952,33.70952,0,0,0,33.7124,33.71289h84.19532a.275.275,0,0,1,.27734.25A.22788.22788,0,0,1,259.1416,188.99951Z"/>
    </g>
  </g>

        </g>
    </g>
</g>

<!-- ITEM 1 -->
<g>
    <defs>
        
        <clipPath id="clip-path-id-viewbox-item-1">
            <rect x="0.0" y="0.0" width="45.703" height="65.78"/>
        </clipPath>
    </defs>
    <g transform="translate(293.0 487.0) rotate(349.2213090544159 33.5 47.5) scale(1.465986915519769 1.4442079659470963)">
        <g clip-path="url(#clip-path-id-viewbox-item-1)" transform="translate(-0.0 -0.0)">

<g>
	<path style="fill:#334A5A;" d="M43.189,26.39c1.02,4.59,2.04,9.33,1.21,13.96c-0.98,5.48-4.09,9.14-9.49,9.42   c-4.97,0.26-9.92,0.74-14.88,1.26l-0.01-0.1c-1.98,0.18-4.51-0.55-5.37-1.92c-0.87-1.38-1.07-3.05-1.25-4.66   c-0.44-4.03-0.88-8.05-1.33-12.07c-0.32-2.93-0.56-6.17,1.18-8.55c1.76-2.42,4.99-3.16,7.93-3.72c4.01-0.76,8.11-1.53,12.16-1.03   c4.06,0.5,7.26,0.76,9.24,5.62l0.17-0.05C42.909,25.17,43.059,25.78,43.189,26.39z"/>
	<path style="fill:#1E5C9A;" d="M17.979,51.25c-1.35,0.15-2.71,0.29-4.06,0.44c-2.53,0.27-6.06,0.65-8.76-2.49   c-4.17-4.87-4.01-15.34-4.13-18.85c-0.2-5.73,0.62-8.53,3.24-10.86c2.29-2.04,5.56-2.44,8.61-2.76c5.6-0.57,11.21-1.15,16.82-1.73   c2.39-0.25,4.92-0.47,7.13,0.5c3.43,1.51,4.96,5.3,5.92,9.05l-0.17,0.05c-1.98-4.86-5.18-5.12-9.24-5.62   c-4.05-0.5-8.15,0.27-12.16,1.03c-2.94,0.56-6.17,1.3-7.93,3.72c-1.74,2.38-1.5,5.62-1.18,8.55c0.45,4.02,0.89,8.04,1.33,12.07   c0.18,1.61,0.38,3.28,1.25,4.66c0.86,1.37,3.39,2.1,5.37,1.92l0.01,0.1C19.349,51.1,18.659,51.18,17.979,51.25z"/>
	<path d="M11.379,52.864c-2.262,0-4.846-0.532-6.979-3.012C0.372,45.147,0.16,35.915,0.058,31.478   c-0.01-0.414-0.018-0.781-0.029-1.094c-0.211-6.06,0.724-9.106,3.575-11.642c2.604-2.319,6.245-2.701,9.17-3.007   c5.602-0.571,11.212-1.151,16.821-1.731c2.271-0.237,5.1-0.532,7.635,0.579c3.995,1.759,5.565,6.117,6.487,9.718   c0.163,0.632,0.316,1.257,0.449,1.881c0.982,4.417,2.096,9.434,1.217,14.345c-1.129,6.314-4.831,9.951-10.423,10.242   c-5.011,0.262-10.088,0.758-14.828,1.255l-6.103,0.66C13.244,52.767,12.341,52.864,11.379,52.864z M32.903,15.788   c-0.978,0-2.013,0.093-3.101,0.206c-5.612,0.581-11.222,1.161-16.823,1.731c-2.637,0.275-5.923,0.62-8.046,2.512   c-2.363,2.101-3.095,4.644-2.906,10.078c0.011,0.319,0.02,0.694,0.029,1.117c0.097,4.205,0.298,12.955,3.861,17.117   c2.353,2.736,5.421,2.407,7.886,2.147l4.063-0.441c0.003,0,0.005,0,0.008-0.001l2.05-0.22c4.765-0.5,9.873-0.999,14.931-1.264   c5.857-0.304,7.886-4.843,8.558-8.597c0.809-4.517-0.259-9.325-1.202-13.567c-0.129-0.605-0.276-1.201-0.432-1.808   c-0.81-3.164-2.15-6.974-5.354-8.385C35.354,15.945,34.177,15.788,32.903,15.788z"/>
	<path d="M19.428,51.081c-1.844,0-4.067-0.702-4.885-2.005c-0.901-1.43-1.096-3.173-1.268-4.712c-0.44-4.03-0.88-8.051-1.33-12.07   c-0.336-3.078-0.52-6.28,1.203-8.638c1.748-2.402,4.914-3.18,8.007-3.77c3.985-0.756,8.105-1.538,12.199-1.03l0.335,0.041   c3.94,0.481,7.053,0.862,9.006,5.656c0.026,0.063-0.005,0.137-0.069,0.163c-0.063,0.023-0.137-0.005-0.163-0.069   c-1.897-4.657-4.946-5.03-8.804-5.502l-0.335-0.041c-4.053-0.501-8.155,0.276-12.122,1.028c-3.044,0.58-6.158,1.342-7.852,3.671   c-1.672,2.287-1.501,5.309-1.157,8.463c0.45,4.02,0.89,8.04,1.33,12.07c0.169,1.512,0.361,3.225,1.231,4.606   c0.859,1.367,3.397,2.021,5.253,1.862c0.068-0.014,0.13,0.044,0.136,0.112c0.006,0.069-0.044,0.13-0.113,0.136   C19.836,51.072,19.634,51.081,19.428,51.081z"/>
	<path d="M14.49,16.95c-0.344,0-0.678-0.177-0.864-0.495l-7.11-12.14C6.237,3.839,6.397,3.226,6.874,2.947   c0.476-0.28,1.089-0.119,1.368,0.358l7.11,12.14c0.279,0.477,0.119,1.089-0.358,1.368C14.835,16.906,14.661,16.95,14.49,16.95z"/>
	<path d="M28.729,15.76c-0.085,0-0.172-0.011-0.259-0.034c-0.534-0.143-0.851-0.69-0.708-1.224c0.545-2.039,1.263-4.486,1.958-6.853   c0.701-2.39,1.427-4.86,1.972-6.907c0.143-0.534,0.691-0.854,1.224-0.708c0.534,0.142,0.851,0.689,0.709,1.224   c-0.552,2.07-1.281,4.554-1.986,6.955c-0.691,2.355-1.406,4.79-1.945,6.805C29.575,15.465,29.171,15.76,28.729,15.76z"/>
	<path d="M14.779,65.78c-0.081,0-0.162-0.01-0.244-0.03c-0.536-0.134-0.861-0.677-0.727-1.213c0.535-2.136,1.086-4.526,1.618-6.839   c0.527-2.287,1.054-4.574,1.576-6.668c0-0.002,0.001-0.004,0.001-0.006c0.083-0.469,0.492-0.824,0.985-0.824c0.552,0,1,0.447,1,1   c0,0.071-0.01,0.154-0.027,0.231c-0.004,0.021-0.008,0.04-0.013,0.061c-0.521,2.089-1.047,4.372-1.573,6.655   c-0.535,2.321-1.087,4.722-1.627,6.876C15.635,65.477,15.227,65.78,14.779,65.78z"/>
	<path d="M40.74,62.91c-0.354,0-0.697-0.188-0.879-0.521c-1.379-2.527-4.896-8.154-7.379-11.807   c-0.311-0.457-0.192-1.079,0.265-1.39c0.456-0.311,1.079-0.191,1.389,0.265c2.512,3.695,6.077,9.401,7.481,11.973   c0.265,0.485,0.086,1.093-0.399,1.357C41.066,62.871,40.901,62.91,40.74,62.91z"/>
</g>

        </g>
    </g>
</g>

<!-- ITEM 2 -->
<g>
    <defs>
        
        <clipPath id="clip-path-id-viewbox-item-2">
            <rect x="0.0" y="0.0" width="116.73" height="56.95"/>
        </clipPath>
    </defs>
    <g transform="translate(670.0 453.0) rotate(17.314338000886643 91.5 44.5) scale(1.5677203803649447 1.562774363476734)">
        <g clip-path="url(#clip-path-id-viewbox-item-2)" transform="translate(-0.0 -0.0)">

  <g>
    <path d="M1.49943,24.66039a1.4998,1.4998,0,0,1-.43335-2.93555L72.77628.06468a1.49967,1.49967,0,1,1,.86768,2.8711L1.93375,24.59593A1.49218,1.49218,0,0,1,1.49943,24.66039Z"/>
    <path d="M6.37955,40.8098a1.4998,1.4998,0,0,1-.43335-2.93555L114.79606,4.99437a1.49967,1.49967,0,1,1,.86767,2.8711L6.81388,40.74535A1.49257,1.49257,0,0,1,6.37955,40.8098Z"/>
    <path d="M11.24943,56.95043a1.49976,1.49976,0,0,1-.43311-2.93555l52.06006-15.7207a1.4996,1.4996,0,1,1,.86719,2.87109L11.68351,56.886A1.48941,1.48941,0,0,1,11.24943,56.95043Z"/>
  </g>

        </g>
    </g>
</g>

<!-- ITEM 3 -->
<g>
    <defs>
        
        <clipPath id="clip-path-id-viewbox-item-3">
            <rect x="0.0" y="0.0" width="96.90736" height="62.06063"/>
        </clipPath>
    </defs>
    <g transform="translate(670.0 752.0) rotate(0.0 90.5 59.0) scale(1.8677631915676993 1.9013664540627446)">
        <g clip-path="url(#clip-path-id-viewbox-item-3)" transform="translate(-0.0 -0.0)">

  <g>
    <path d="M95.40742,2.99962H1.49995a1.5,1.5,0,0,1,0-3H95.40742a1.5,1.5,0,0,1,0,3Z"/>
    <path d="M86.02168,17.76524H24.97822a1.5,1.5,0,0,1,0-3H86.02168a1.5,1.5,0,1,1,0,3Z"/>
    <path d="M86.02168,32.52989H1.49995a1.5,1.5,0,1,1,0-3H86.02168a1.5,1.5,0,0,1,0,3Z"/>
    <path d="M71.5959,47.29552H29.674a1.5,1.5,0,1,1,0-3H71.5959a1.5,1.5,0,0,1,0,3Z"/>
    <path d="M66.18111,62.06017H41.413a1.5,1.5,0,1,1,0-3H66.18111a1.5,1.5,0,0,1,0,3Z"/>
  </g>

        </g>
    </g>
</g>

<!-- ITEM 4 -->
<g>
    <defs>
        
        <clipPath id="clip-path-id-viewbox-item-4">
            <rect x="0.0" y="0.0" width="45.703" height="65.78"/>
        </clipPath>
    </defs>
    <g transform="translate(334.0 656.0) rotate(18.181558240342827 41.0 58.5) scale(1.7941929413824036 1.7786561264822134)">
        <g clip-path="url(#clip-path-id-viewbox-item-4)" transform="translate(-0.0 -0.0)">

<g>
	<path style="fill:#334A5A;" d="M43.189,26.39c1.02,4.59,2.04,9.33,1.21,13.96c-0.98,5.48-4.09,9.14-9.49,9.42   c-4.97,0.26-9.92,0.74-14.88,1.26l-0.01-0.1c-1.98,0.18-4.51-0.55-5.37-1.92c-0.87-1.38-1.07-3.05-1.25-4.66   c-0.44-4.03-0.88-8.05-1.33-12.07c-0.32-2.93-0.56-6.17,1.18-8.55c1.76-2.42,4.99-3.16,7.93-3.72c4.01-0.76,8.11-1.53,12.16-1.03   c4.06,0.5,7.26,0.76,9.24,5.62l0.17-0.05C42.909,25.17,43.059,25.78,43.189,26.39z"/>
	<path style="fill:#1E5C9A;" d="M17.979,51.25c-1.35,0.15-2.71,0.29-4.06,0.44c-2.53,0.27-6.06,0.65-8.76-2.49   c-4.17-4.87-4.01-15.34-4.13-18.85c-0.2-5.73,0.62-8.53,3.24-10.86c2.29-2.04,5.56-2.44,8.61-2.76c5.6-0.57,11.21-1.15,16.82-1.73   c2.39-0.25,4.92-0.47,7.13,0.5c3.43,1.51,4.96,5.3,5.92,9.05l-0.17,0.05c-1.98-4.86-5.18-5.12-9.24-5.62   c-4.05-0.5-8.15,0.27-12.16,1.03c-2.94,0.56-6.17,1.3-7.93,3.72c-1.74,2.38-1.5,5.62-1.18,8.55c0.45,4.02,0.89,8.04,1.33,12.07   c0.18,1.61,0.38,3.28,1.25,4.66c0.86,1.37,3.39,2.1,5.37,1.92l0.01,0.1C19.349,51.1,18.659,51.18,17.979,51.25z"/>
	<path d="M11.379,52.864c-2.262,0-4.846-0.532-6.979-3.012C0.372,45.147,0.16,35.915,0.058,31.478   c-0.01-0.414-0.018-0.781-0.029-1.094c-0.211-6.06,0.724-9.106,3.575-11.642c2.604-2.319,6.245-2.701,9.17-3.007   c5.602-0.571,11.212-1.151,16.821-1.731c2.271-0.237,5.1-0.532,7.635,0.579c3.995,1.759,5.565,6.117,6.487,9.718   c0.163,0.632,0.316,1.257,0.449,1.881c0.982,4.417,2.096,9.434,1.217,14.345c-1.129,6.314-4.831,9.951-10.423,10.242   c-5.011,0.262-10.088,0.758-14.828,1.255l-6.103,0.66C13.244,52.767,12.341,52.864,11.379,52.864z M32.903,15.788   c-0.978,0-2.013,0.093-3.101,0.206c-5.612,0.581-11.222,1.161-16.823,1.731c-2.637,0.275-5.923,0.62-8.046,2.512   c-2.363,2.101-3.095,4.644-2.906,10.078c0.011,0.319,0.02,0.694,0.029,1.117c0.097,4.205,0.298,12.955,3.861,17.117   c2.353,2.736,5.421,2.407,7.886,2.147l4.063-0.441c0.003,0,0.005,0,0.008-0.001l2.05-0.22c4.765-0.5,9.873-0.999,14.931-1.264   c5.857-0.304,7.886-4.843,8.558-8.597c0.809-4.517-0.259-9.325-1.202-13.567c-0.129-0.605-0.276-1.201-0.432-1.808   c-0.81-3.164-2.15-6.974-5.354-8.385C35.354,15.945,34.177,15.788,32.903,15.788z"/>
	<path d="M19.428,51.081c-1.844,0-4.067-0.702-4.885-2.005c-0.901-1.43-1.096-3.173-1.268-4.712c-0.44-4.03-0.88-8.051-1.33-12.07   c-0.336-3.078-0.52-6.28,1.203-8.638c1.748-2.402,4.914-3.18,8.007-3.77c3.985-0.756,8.105-1.538,12.199-1.03l0.335,0.041   c3.94,0.481,7.053,0.862,9.006,5.656c0.026,0.063-0.005,0.137-0.069,0.163c-0.063,0.023-0.137-0.005-0.163-0.069   c-1.897-4.657-4.946-5.03-8.804-5.502l-0.335-0.041c-4.053-0.501-8.155,0.276-12.122,1.028c-3.044,0.58-6.158,1.342-7.852,3.671   c-1.672,2.287-1.501,5.309-1.157,8.463c0.45,4.02,0.89,8.04,1.33,12.07c0.169,1.512,0.361,3.225,1.231,4.606   c0.859,1.367,3.397,2.021,5.253,1.862c0.068-0.014,0.13,0.044,0.136,0.112c0.006,0.069-0.044,0.13-0.113,0.136   C19.836,51.072,19.634,51.081,19.428,51.081z"/>
	<path d="M14.49,16.95c-0.344,0-0.678-0.177-0.864-0.495l-7.11-12.14C6.237,3.839,6.397,3.226,6.874,2.947   c0.476-0.28,1.089-0.119,1.368,0.358l7.11,12.14c0.279,0.477,0.119,1.089-0.358,1.368C14.835,16.906,14.661,16.95,14.49,16.95z"/>
	<path d="M28.729,15.76c-0.085,0-0.172-0.011-0.259-0.034c-0.534-0.143-0.851-0.69-0.708-1.224c0.545-2.039,1.263-4.486,1.958-6.853   c0.701-2.39,1.427-4.86,1.972-6.907c0.143-0.534,0.691-0.854,1.224-0.708c0.534,0.142,0.851,0.689,0.709,1.224   c-0.552,2.07-1.281,4.554-1.986,6.955c-0.691,2.355-1.406,4.79-1.945,6.805C29.575,15.465,29.171,15.76,28.729,15.76z"/>
	<path d="M14.779,65.78c-0.081,0-0.162-0.01-0.244-0.03c-0.536-0.134-0.861-0.677-0.727-1.213c0.535-2.136,1.086-4.526,1.618-6.839   c0.527-2.287,1.054-4.574,1.576-6.668c0-0.002,0.001-0.004,0.001-0.006c0.083-0.469,0.492-0.824,0.985-0.824c0.552,0,1,0.447,1,1   c0,0.071-0.01,0.154-0.027,0.231c-0.004,0.021-0.008,0.04-0.013,0.061c-0.521,2.089-1.047,4.372-1.573,6.655   c-0.535,2.321-1.087,4.722-1.627,6.876C15.635,65.477,15.227,65.78,14.779,65.78z"/>
	<path d="M40.74,62.91c-0.354,0-0.697-0.188-0.879-0.521c-1.379-2.527-4.896-8.154-7.379-11.807   c-0.311-0.457-0.192-1.079,0.265-1.39c0.456-0.311,1.079-0.191,1.389,0.265c2.512,3.695,6.077,9.401,7.481,11.973   c0.265,0.485,0.086,1.093-0.399,1.357C41.066,62.871,40.901,62.91,40.74,62.91z"/>
</g>

        </g>
    </g>
</g>

<!-- ITEM 5 -->
<g>
    <defs>
        
        <clipPath id="clip-path-id-viewbox-item-5">
            <rect x="0.0" y="0.0" width="45.703" height="65.78"/>
        </clipPath>
    </defs>
    <g transform="translate(473.0 526.0) rotate(38.185028570751925 30.5 44.0) scale(1.3347045051747148 1.3377926421404682)">
        <g clip-path="url(#clip-path-id-viewbox-item-5)" transform="translate(-0.0 -0.0)">

<g>
	<path style="fill:#334A5A;" d="M43.189,26.39c1.02,4.59,2.04,9.33,1.21,13.96c-0.98,5.48-4.09,9.14-9.49,9.42   c-4.97,0.26-9.92,0.74-14.88,1.26l-0.01-0.1c-1.98,0.18-4.51-0.55-5.37-1.92c-0.87-1.38-1.07-3.05-1.25-4.66   c-0.44-4.03-0.88-8.05-1.33-12.07c-0.32-2.93-0.56-6.17,1.18-8.55c1.76-2.42,4.99-3.16,7.93-3.72c4.01-0.76,8.11-1.53,12.16-1.03   c4.06,0.5,7.26,0.76,9.24,5.62l0.17-0.05C42.909,25.17,43.059,25.78,43.189,26.39z"/>
	<path style="fill:#1E5C9A;" d="M17.979,51.25c-1.35,0.15-2.71,0.29-4.06,0.44c-2.53,0.27-6.06,0.65-8.76-2.49   c-4.17-4.87-4.01-15.34-4.13-18.85c-0.2-5.73,0.62-8.53,3.24-10.86c2.29-2.04,5.56-2.44,8.61-2.76c5.6-0.57,11.21-1.15,16.82-1.73   c2.39-0.25,4.92-0.47,7.13,0.5c3.43,1.51,4.96,5.3,5.92,9.05l-0.17,0.05c-1.98-4.86-5.18-5.12-9.24-5.62   c-4.05-0.5-8.15,0.27-12.16,1.03c-2.94,0.56-6.17,1.3-7.93,3.72c-1.74,2.38-1.5,5.62-1.18,8.55c0.45,4.02,0.89,8.04,1.33,12.07   c0.18,1.61,0.38,3.28,1.25,4.66c0.86,1.37,3.39,2.1,5.37,1.92l0.01,0.1C19.349,51.1,18.659,51.18,17.979,51.25z"/>
	<path d="M11.379,52.864c-2.262,0-4.846-0.532-6.979-3.012C0.372,45.147,0.16,35.915,0.058,31.478   c-0.01-0.414-0.018-0.781-0.029-1.094c-0.211-6.06,0.724-9.106,3.575-11.642c2.604-2.319,6.245-2.701,9.17-3.007   c5.602-0.571,11.212-1.151,16.821-1.731c2.271-0.237,5.1-0.532,7.635,0.579c3.995,1.759,5.565,6.117,6.487,9.718   c0.163,0.632,0.316,1.257,0.449,1.881c0.982,4.417,2.096,9.434,1.217,14.345c-1.129,6.314-4.831,9.951-10.423,10.242   c-5.011,0.262-10.088,0.758-14.828,1.255l-6.103,0.66C13.244,52.767,12.341,52.864,11.379,52.864z M32.903,15.788   c-0.978,0-2.013,0.093-3.101,0.206c-5.612,0.581-11.222,1.161-16.823,1.731c-2.637,0.275-5.923,0.62-8.046,2.512   c-2.363,2.101-3.095,4.644-2.906,10.078c0.011,0.319,0.02,0.694,0.029,1.117c0.097,4.205,0.298,12.955,3.861,17.117   c2.353,2.736,5.421,2.407,7.886,2.147l4.063-0.441c0.003,0,0.005,0,0.008-0.001l2.05-0.22c4.765-0.5,9.873-0.999,14.931-1.264   c5.857-0.304,7.886-4.843,8.558-8.597c0.809-4.517-0.259-9.325-1.202-13.567c-0.129-0.605-0.276-1.201-0.432-1.808   c-0.81-3.164-2.15-6.974-5.354-8.385C35.354,15.945,34.177,15.788,32.903,15.788z"/>
	<path d="M19.428,51.081c-1.844,0-4.067-0.702-4.885-2.005c-0.901-1.43-1.096-3.173-1.268-4.712c-0.44-4.03-0.88-8.051-1.33-12.07   c-0.336-3.078-0.52-6.28,1.203-8.638c1.748-2.402,4.914-3.18,8.007-3.77c3.985-0.756,8.105-1.538,12.199-1.03l0.335,0.041   c3.94,0.481,7.053,0.862,9.006,5.656c0.026,0.063-0.005,0.137-0.069,0.163c-0.063,0.023-0.137-0.005-0.163-0.069   c-1.897-4.657-4.946-5.03-8.804-5.502l-0.335-0.041c-4.053-0.501-8.155,0.276-12.122,1.028c-3.044,0.58-6.158,1.342-7.852,3.671   c-1.672,2.287-1.501,5.309-1.157,8.463c0.45,4.02,0.89,8.04,1.33,12.07c0.169,1.512,0.361,3.225,1.231,4.606   c0.859,1.367,3.397,2.021,5.253,1.862c0.068-0.014,0.13,0.044,0.136,0.112c0.006,0.069-0.044,0.13-0.113,0.136   C19.836,51.072,19.634,51.081,19.428,51.081z"/>
	<path d="M14.49,16.95c-0.344,0-0.678-0.177-0.864-0.495l-7.11-12.14C6.237,3.839,6.397,3.226,6.874,2.947   c0.476-0.28,1.089-0.119,1.368,0.358l7.11,12.14c0.279,0.477,0.119,1.089-0.358,1.368C14.835,16.906,14.661,16.95,14.49,16.95z"/>
	<path d="M28.729,15.76c-0.085,0-0.172-0.011-0.259-0.034c-0.534-0.143-0.851-0.69-0.708-1.224c0.545-2.039,1.263-4.486,1.958-6.853   c0.701-2.39,1.427-4.86,1.972-6.907c0.143-0.534,0.691-0.854,1.224-0.708c0.534,0.142,0.851,0.689,0.709,1.224   c-0.552,2.07-1.281,4.554-1.986,6.955c-0.691,2.355-1.406,4.79-1.945,6.805C29.575,15.465,29.171,15.76,28.729,15.76z"/>
	<path d="M14.779,65.78c-0.081,0-0.162-0.01-0.244-0.03c-0.536-0.134-0.861-0.677-0.727-1.213c0.535-2.136,1.086-4.526,1.618-6.839   c0.527-2.287,1.054-4.574,1.576-6.668c0-0.002,0.001-0.004,0.001-0.006c0.083-0.469,0.492-0.824,0.985-0.824c0.552,0,1,0.447,1,1   c0,0.071-0.01,0.154-0.027,0.231c-0.004,0.021-0.008,0.04-0.013,0.061c-0.521,2.089-1.047,4.372-1.573,6.655   c-0.535,2.321-1.087,4.722-1.627,6.876C15.635,65.477,15.227,65.78,14.779,65.78z"/>
	<path d="M40.74,62.91c-0.354,0-0.697-0.188-0.879-0.521c-1.379-2.527-4.896-8.154-7.379-11.807   c-0.311-0.457-0.192-1.079,0.265-1.39c0.456-0.311,1.079-0.191,1.389,0.265c2.512,3.695,6.077,9.401,7.481,11.973   c0.265,0.485,0.086,1.093-0.399,1.357C41.066,62.871,40.901,62.91,40.74,62.91z"/>
</g>

        </g>
    </g>
</g>

<!-- ITEM 6 -->
<g>
    <defs>
        
        <clipPath id="clip-path-id-viewbox-item-6">
            <rect x="0.0" y="0.0" width="31.00011" height="31.0"/>
        </clipPath>
    </defs>
    <g transform="translate(367.0 1099.0) rotate(105.56333403678727 57.0 55.5) scale(3.677406305977624 3.5806451612903225)">
        <g clip-path="url(#clip-path-id-viewbox-item-6)" transform="translate(-0.0 -0.0)">

  
  <g>
    <path d="M15.50113,30.5a3.0141,3.0141,0,0,1-2.56738-1.44922c-2.35156-3.89355-5.94141-7.251-10.97461-10.2666a2.9998,2.9998,0,1,1,3.082-5.14746,46.12058,46.12058,0,0,1,6.3291,4.50879l2.19239,1.88086.98925-2.71289C16.964,10.69824,21.006,4.80566,25.64176,1.14453a3.00062,3.00062,0,1,1,3.71777,4.71094C22.65348,11.14941,18.50113,21.21289,18.50113,27.5a3.00173,3.00173,0,0,1-3,3Z" style="         fill: #f85750;       "/>
    <path d="M15.50111,31.0001a3.51742,3.51742,0,0,1-2.99561-1.69092c-2.30737-3.82031-5.84106-7.1228-10.80347-10.096a3.49979,3.49979,0,1,1,3.5962-6.00512,46.63857,46.63857,0,0,1,6.3977,4.5581l1.64429,1.41065.74194-2.03467C16.52479,10.44346,20.62513,4.46934,25.33192.7523A3.49891,3.49891,0,0,1,30.97572,3.909a3.47742,3.47742,0,0,1-1.3064,2.33887C23.07972,11.45,19.00111,21.32969,19.00111,27.5001a3.50206,3.50206,0,0,1-3.5,3.5ZM3.505,13.70908a2.501,2.501,0,0,0-1.28882,4.64624c5.10572,3.05909,8.75147,6.47315,11.14551,10.437a2.53855,2.53855,0,0,0,2.80982,1.11572,2.50629,2.50629,0,0,0,1.82959-2.408c0-6.40357,4.22412-16.64966,11.04858-22.03687a2.50431,2.50431,0,0,0,.41455-3.51171,2.55848,2.55848,0,0,0-3.51343-.41382c-4.56445,3.60473-8.54834,9.41748-10.9292,15.94726l-.98925,2.71289a.49989.49989,0,0,1-.79517.208L11.04456,18.525a45.6164,45.6164,0,0,0-6.26025-4.45923A2.48976,2.48976,0,0,0,3.505,13.70908Z"/>
  </g>

        </g>
    </g>
</g>

<!-- ITEM 7 -->
<g>
    <defs>
        
        <clipPath id="clip-path-id-viewbox-item-7">
            <rect x="0.0" y="0.0" width="31.00011" height="31.0"/>
        </clipPath>
    </defs>
    <g transform="translate(811.0 1089.0) rotate(247.81722144857636 -60.0 58.0) scale(-3.870954006292236 3.7419354838709675)">
        <g clip-path="url(#clip-path-id-viewbox-item-7)" transform="translate(-0.0 -0.0)">

  
  <g>
    <path d="M15.50113,30.5a3.0141,3.0141,0,0,1-2.56738-1.44922c-2.35156-3.89355-5.94141-7.251-10.97461-10.2666a2.9998,2.9998,0,1,1,3.082-5.14746,46.12058,46.12058,0,0,1,6.3291,4.50879l2.19239,1.88086.98925-2.71289C16.964,10.69824,21.006,4.80566,25.64176,1.14453a3.00062,3.00062,0,1,1,3.71777,4.71094C22.65348,11.14941,18.50113,21.21289,18.50113,27.5a3.00173,3.00173,0,0,1-3,3Z" style="         fill: #f85750;       "/>
    <path d="M15.50111,31.0001a3.51742,3.51742,0,0,1-2.99561-1.69092c-2.30737-3.82031-5.84106-7.1228-10.80347-10.096a3.49979,3.49979,0,1,1,3.5962-6.00512,46.63857,46.63857,0,0,1,6.3977,4.5581l1.64429,1.41065.74194-2.03467C16.52479,10.44346,20.62513,4.46934,25.33192.7523A3.49891,3.49891,0,0,1,30.97572,3.909a3.47742,3.47742,0,0,1-1.3064,2.33887C23.07972,11.45,19.00111,21.32969,19.00111,27.5001a3.50206,3.50206,0,0,1-3.5,3.5ZM3.505,13.70908a2.501,2.501,0,0,0-1.28882,4.64624c5.10572,3.05909,8.75147,6.47315,11.14551,10.437a2.53855,2.53855,0,0,0,2.80982,1.11572,2.50629,2.50629,0,0,0,1.82959-2.408c0-6.40357,4.22412-16.64966,11.04858-22.03687a2.50431,2.50431,0,0,0,.41455-3.51171,2.55848,2.55848,0,0,0-3.51343-.41382c-4.56445,3.60473-8.54834,9.41748-10.9292,15.94726l-.98925,2.71289a.49989.49989,0,0,1-.79517.208L11.04456,18.525a45.6164,45.6164,0,0,0-6.26025-4.45923A2.48976,2.48976,0,0,0,3.505,13.70908Z"/>
  </g>

        </g>
    </g>
</g>

<!-- ITEM 8 -->
<g>
    <defs>
        
        <clipPath id="clip-path-id-viewbox-item-8">
            <rect x="0.0" y="0.0" width="326.23283" height="537.51953"/>
        </clipPath>
    </defs>
    <g transform="translate(1367.0 421.0) rotate(0.0 -289.5 476.0) scale(-1.7748060487964992 1.7710984380418697)">
        <g clip-path="url(#clip-path-id-viewbox-item-8)" transform="translate(-0.0 -0.0)">

  
  <g>
    <g>
      <path d="M187.87241,517.69852a11.96777,11.96777,0,0,1,.18687,2.10229c0,5.05484-6.391,9.35286-15.29533,12.09985a36.16716,36.16716,0,0,0,2.67225-9.20336A87.10572,87.10572,0,0,0,187.87241,517.69852Z" style="         fill: #ffe4e9;       "/>
      <path d="M171.77354,502.67415c7.54022,3.22351,14.85619,8.09149,16.09887,15.02437a87.10572,87.10572,0,0,1-12.43621,4.99878A32.1741,32.1741,0,0,0,171.77354,502.67415Z" style="         fill: #ffe4e9;       "/>
      <path d="M175.4362,522.6973a36.16716,36.16716,0,0,1-2.67225,9.20336c-11.35237,3.50382-26.81588,4.49423-38.34578,1.34547a69.50916,69.50916,0,0,1-2.33587-9.521A75.86148,75.86148,0,0,0,175.4362,522.6973Z" style="         fill: #ffe4e9;       "/>
      <path d="M132.0823,523.72509a69.50916,69.50916,0,0,0,2.33587,9.521c-8.96042-2.43866-15.5476-7.372-16.02412-15.557A50.21356,50.21356,0,0,0,132.0823,523.72509Z" style="         fill: #fed3d5;       "/>
      <path d="M91.55014,526.42536a35.12762,35.12762,0,0,1-4.64373,8.46523c-19.54663,4.64372-47.80141,1.23334-49.37112-15.47286C47.54219,525.27611,68.83605,530.92894,91.55014,526.42536Z" style="         fill: #fed3d5;       "/>
      <path d="M105.30379,522.417c-.93435,5.74626-8.55866,10.12836-18.39738,12.47359a35.12762,35.12762,0,0,0,4.64373-8.46523A81.41409,81.41409,0,0,0,105.30379,522.417Z" style="         fill: #fed3d5;       "/>
      <path d="M105.39722,521.23037a7.17542,7.17542,0,0,1-.09343,1.18663,81.41409,81.41409,0,0,1-13.75365,4.00836,29.23794,29.23794,0,0,0-1.252-23.1906C98.4363,507.5795,105.39722,513.55,105.39722,521.23037Z" style="         fill: #fed3d5;       "/>
      <path d="M131.75527,506.55171a56.8896,56.8896,0,0,0,.327,17.17338,50.21356,50.21356,0,0,1-13.68825-6.03591c-.01869-.31768-.028-.63536-.028-.96238a107.76436,107.76436,0,0,1,1.09319-14.97766A33.64179,33.64179,0,0,0,131.75527,506.55171Z" style="         fill: #e64337;       "/>
      <path d="M171.77354,502.67415a32.1741,32.1741,0,0,1,3.66266,20.02315,75.86148,75.86148,0,0,1-43.3539,1.02779,56.8896,56.8896,0,0,1-.327-17.17338c14.43573,2.27982,21.976-9.22205,21.976-9.22205h.00934A89.653,89.653,0,0,1,171.77354,502.67415Z" style="         fill: #f85750;       "/>
      <path d="M90.2981,503.23476a29.23794,29.23794,0,0,1,1.252,23.1906c-22.71409,4.50358-44.00795-1.14925-54.01485-7.00763a12.96335,12.96335,0,0,1-.07475-1.48562,63.37624,63.37624,0,0,1,3.28891-19.3037c5.06419,6.00788,19.76153,12.25869,34.5056-1.63511V496.984a93.79,93.79,0,0,1,15.04305,6.24147Z" style="         fill: #e64337;       "/>
      <path d="M61.04356,322.21354c5.2604,17.463-15.29533,22.3964-19.8643,12.13722a115.94871,115.94871,0,0,1-1.7379-19.883q0-7.25991.23359-13.85643V300.602c2.82174-6.419,8.596-12.82864,16.78095-17.36025A111.81565,111.81565,0,0,0,61.04356,322.21354Z" style="         fill: #1e5c9a;       "/>
      <path d="M160.29971,326.99742c-.33637,4.61569-.49521,7.09172-5.60611,9.39957s-14.01527-3.79347-16.15494-11.81954c-2.149-8.01674-9.39957-25.76941-14.02461-34.15989,7.82052,3.943,16.03347,7.8579,25.77875,10.35261C154.18905,310.53415,157.52468,319.1769,160.29971,326.99742Z" style="         fill: #1e5c9a;       "/>
      <path d="M172.00713,303.44242c8.66144,21.36861,16.05215,41.85894,16.05215,54.99592,0,58.24746-33.03866,103.9279-34.38412,132.463a54.03686,54.03686,0,0,0,.0654,6.42833h-.00934s-7.54022,11.50187-21.976,9.22205c.96239-7.5589,3.35432-15.51023,7.14779-24.6949,7.54022-18.27592,16.87439-43.75568,26.94669-76.813,8.03542-26.34871,6.28819-44.71805-5.55-78.04636-2.775-7.82052-6.11066-16.46327-10.00691-26.22725A86.95346,86.95346,0,0,0,172.00713,303.44242Z" style="         fill: #1e5c9a;       "/>
      <path d="M160.29971,326.99742c11.83823,33.32831,13.58546,51.69765,5.55,78.04636-10.0723,33.05735-19.40647,58.53711-26.94669,76.813-3.79347,9.18467-6.1854,17.136-7.14779,24.6949a33.64179,33.64179,0,0,1-12.29606-4.80257c4.22327-30.43182,19.35042-59.82651,19.35042-104.83421,0-52.32368-30.11415-72.33748-35.39323-72.33748a7.6205,7.6205,0,0,0-4.80257,1.51364c-12.73521-14.55719-16.68751-31.86138-16.95848-49.21228.15884-.00934.327-.00934.48587-.00934,16.809,0,29.03029,6.82076,42.37283,13.54809,4.625,8.39048,11.87561,26.14315,14.02461,34.15989,2.13967,8.02607,11.044,14.12739,16.15494,11.81954S159.96334,331.61311,160.29971,326.99742Z" style="         fill: #1a4d81;       "/>
      <path d="M94.83905,336.8922c0,8.3531,13.85643,29.675,13.85643,62.43335,0,32.749-33.4124,89.8846-33.44043,97.6584v.00935c-14.74407,13.8938-29.44141,7.643-34.5056,1.63511,7.40941-23.284,24.74163-46.02615,24.74163-78.962,0-26.38608-18.48147-51.61357-24.31182-85.31562,4.569,10.25918,25.1247,5.3258,19.8643-12.13722a111.81565,111.81565,0,0,1-4.58766-38.9718v-.00934a52.44432,52.44432,0,0,1,25.19945-6.35359c.271,17.3509,4.22327,34.65509,16.95848,49.21228C96.21255,327.93177,94.83905,331.49165,94.83905,336.8922Z" style="         fill: #1a4d81;       "/>
      <path d="M205.26069,226.1155a76.7868,76.7868,0,0,0,8.12886,11.32434c-10.54883-6.746-27.68483-16.97716-28.54443-45.90468a47.52015,47.52015,0,0,0,16.65948,8.65209v.00935C198.91645,208.71788,200.019,216.94952,205.26069,226.1155Z" style="         fill: #ff736b;       "/>
      <path d="M43.19745,188.65736c-.2149.00934-.4298.028-.654.04672a52.83034,52.83034,0,0,0-16.28575,4.02705,46.85868,46.85868,0,0,0-25.49844,25.106,80.07442,80.07442,0,0,1,3.29826-22.73277C12.24239,186.34017,25.72508,179.426,43.19745,188.65736Z" style="         fill: #f46a3d;       "/>
      <path d="M213.38955,237.43984l-.00934.04672c-34.58969-4.51292-38.88771-21.06962-60.7235-21.06962-19.37844,0,2.41063,45.19457,19.35042,87.02548a86.95346,86.95346,0,0,1-21.71433-2.67225c-9.74528-2.49471-17.95823-6.40965-25.77875-10.35261-13.34254-6.72733-25.56385-13.54809-42.37283-13.54809-.15884,0-.327,0-.48587.00934-.38308-24.21839,6.37228-48.53021,6.37228-65.62884,0-18.79915-9.67988-39.90614-9.67988-51.44538s1.6538-25.0593,9.67988-33.96367c25.704,0,59.40606,14.37966,81.99867,48.11909a64.144,64.144,0,0,0,14.81882,17.57515C185.70472,220.46268,202.84072,230.69382,213.38955,237.43984Z" style="         fill: #f85750;       "/>
      <path d="M78.34775,159.80459c0,11.53924,9.67988,32.64623,9.67988,51.44538,0,17.09863-6.75536,41.41045-6.37228,65.62884A52.44432,52.44432,0,0,0,56.4559,283.2324v.00934C48.271,287.77335,42.49669,294.183,39.675,300.602c.25227-7.0637.67273-13.58547,1.23334-19.612a290.21334,290.21334,0,0,1,5.9892-37.86926c1.39218-6.18541,2.775-11.56727,3.96165-16.36049,1.88738-7.7084,3.25154-13.92184,3.25154-19.63073,0-10.2218-4.27933-18.47212-10.91323-18.47212-17.47237-9.23139-30.95506-2.31719-39.14,6.447,7.17582-23.57368,24.6949-36.19677,39.14-50.3335.77552-.74749,1.54168-1.50431,2.28916-2.27048.00935-.01868.028-.03737.03738-.03737,9.84806-9.03518,27.2924-16.62211,42.50364-16.62211C80.00155,134.74529,78.34775,148.26535,78.34775,159.80459Z" style="         fill: #e64337;       "/>
      <path d="M299.42462,75.713c2.476,1.98082,1.69118,7.25991-.61667,10.88519-5.33515-9.12861-12.48294-4.81191-18.79915.7942,3.644-4.1018,6.774-7.35334,8.40916-9.04452C292.48239,74.11523,296.95793,73.73214,299.42462,75.713Z" style="         fill: #62b57f;       "/>
      <path d="M50.85914,226.76021c-1.18663,4.79322-2.56947,10.17508-3.96165,16.36049-32.93589-10.17509-28.06792-38.14022-20.63983-50.38957a52.83034,52.83034,0,0,1,16.28575-4.02705c-6.12.72879-8.15689,11.76348-8.15689,15.62235C34.38652,216.33284,43.23483,222.81724,50.85914,226.76021Z" style="         fill: #38798f;       "/>
      <path d="M313.552,137.63243c1.20531,6.6339,4.242,14.51048,4.242,25.6386,0,21.26584-26.41412,75.34609-85.54921,75.34609a144.73084,144.73084,0,0,1-18.86455-1.13056l.00934-.04672a76.7868,76.7868,0,0,1-8.12886-11.32434,141.457,141.457,0,0,0,26.10578,2.1677c27.26437,0,67.93668-27.255,67.93668-62.43336,0-10.77307-5.71823-17.36959-5.71823-27.47927,0-9.91347,8.867-30.80556,23.50828-31.62779q.4485-.028.897-.028C332.60343,106.71475,322.9329,128.74675,313.552,137.63243Z" style="         fill: #38798f;       "/>
      <path d="M46.89749,243.1207A290.21334,290.21334,0,0,0,40.90829,280.99C20.96924,274.48687.74987,248.94171.74987,218.83691c0-.33637,0-.67274.00935-.99976a46.85868,46.85868,0,0,1,25.49844-25.106C18.82957,204.98048,13.9616,232.94561,46.89749,243.1207Z" style="         fill: #5499af;       "/>
      <path d="M305.18022,101.43566c5.43793-.91566,9.85741.85026,11.913,5.30712-14.64128.82223-23.50828,21.71432-23.50828,31.62779,0,10.10968,5.71823,16.7062,5.71823,27.47927,0,35.17833-40.67231,62.43336-67.93668,62.43336a141.457,141.457,0,0,1-26.10578-2.1677c-5.24171-9.166-6.34424-17.39762-3.75609-25.9189v-.00935a56.43041,56.43041,0,0,0,15.93069,2.15835c22.17216,0,51.52013-15.50088,51.52013-42.868,0-20.00447-10.54882-22.04135-10.54882-36.05662,0-10.02559,12.42687-25.72269,21.6022-36.02859,6.31621-5.60611,13.464-9.92281,18.79915-.7942-2.30785,3.62529-11.55793,19.584-11.3804,25.72269C287.493,114.57264,294.67811,103.19224,305.18022,101.43566Z" style="         fill: #5499af;       "/>
      <path d="M91.32589.75C150.19937.75,136.95027,118.42217,170.0263,173.96c-22.59261-33.73943-56.29466-48.11909-81.99867-48.11909-15.21124,0-32.65558,7.58693-42.50364,16.62211,10.97863-11.17484,19.64006-23.68581,19.64006-43.44734,0-19.34107-10.119-33.85155-10.119-55.39769C55.045,15.47534,77.69371.75,91.32589.75Z" style="         fill: #5499af;       "/>
    </g>
    <g>
      <path d="M217.43506,203.09558A57.50953,57.50953,0,0,1,201.294,200.9071a48.54313,48.54313,0,0,1-16.917-8.78613,64.32244,64.32244,0,0,1-14.99511-17.77734c-12.6587-21.25537-18.55713-51.50842-24.26123-80.76526C135.88818,46.2262,127.168,1.5,91.32568,1.5c-12.752,0-35.53076,14.07446-35.53076,42.118,0,10.95728,2.66113,20.14173,5.23487,29.02381,2.51171,8.66931,4.88427,16.85778,4.88427,26.3739,0,20.884-9.543,33.47619-19.855,43.9729a.75012.75012,0,0,1-1.07031-1.05127C55.07813,131.668,64.41406,119.36047,64.41406,99.01575c0-9.30323-2.34375-17.39234-4.82519-25.95642-2.60254-8.98267-5.294-18.271-5.294-29.44129C54.29492,14.57568,78.03564,0,91.32568,0c37.07813,0,45.91309,45.31531,55.26709,93.29126,5.67969,29.131,11.55274,59.25366,24.07813,80.28491a62.86384,62.86384,0,0,0,14.64258,17.37317,47.05722,47.05722,0,0,0,16.39892,8.51733,56.01866,56.01866,0,0,0,15.72266,2.12891c21.28515,0,50.77051-14.63672,50.77051-42.118,0-10.69336-2.98828-16.01392-5.87842-21.15918-2.40186-4.27625-4.67041-8.31531-4.67041-14.89746,0-9.9596,11.85058-25.361,21.792-36.52722,3.37988-3.80457,6.28076-6.84412,8.43018-9.06714,4.59912-4.78943,9.45263-4.75611,12.01562-2.69837,2.81494,2.2522,2.03858,7.95752-.45361,11.87268-2.8916,4.54175-10.502,18.10157-11.2124,24.2782.33984-.31213.74072-.70068,1.11669-1.06518,3.00245-2.91016,8.59083-8.327,15.71143-9.51795,5.937-.99975,10.57617,1.08911,12.71777,5.73279a.75008.75008,0,0,1-1.3623.62817c-1.86328-4.04016-5.80664-5.77355-11.10742-4.88159-6.66016,1.11389-12.03028,6.31922-14.91553,9.11573-1.73242,1.67956-2.37988,2.3081-3.123,2.00659a.98169.98169,0,0,1-.58789-.955c-.18408-6.36023,9.17139-22.49451,11.49707-26.14734,2.09473-3.29077,2.874-8.22241.78076-9.8966-2.04785-1.64478-6.05078-1.54224-9.99707,2.56872-2.14111,2.21411-5.02783,5.23889-8.38964,9.02307-14.0083,15.73462-21.4126,28.02063-21.4126,35.5304,0,6.1897,2.07519,9.88452,4.47851,14.16284,2.84522,5.066,6.07032,10.808,6.07032,21.8938C269.70557,187.93762,239.34912,203.09558,217.43506,203.09558Z"/>
      <path d="M40.9082,281.74023a.74472.74472,0,0,1-.23242-.03723C20.68115,275.18176,0,249.88391,0,218.83691c0-.34362,0-.687.00977-1.021a80.35359,80.35359,0,0,1,3.33056-22.93018c5.97754-19.63782,18.9751-31.6709,31.54492-43.30786,2.58789-2.396,5.26416-4.87366,7.7876-7.343q1.16163-1.11932,2.27735-2.2583a.74989.74989,0,1,1,1.07324,1.04761c-.75293.77173-1.52442,1.53406-2.30567,2.28687-2.53369,2.47973-5.21777,4.96459-7.81347,7.36755C23.481,164.18005,10.63477,176.073,4.7749,195.32275a78.92605,78.92605,0,0,0-3.26562,22.52173c-.00928.334-.00928.66321-.00928.99243,0,30.3656,20.15527,55.08472,39.64063,61.44007a.75014.75014,0,0,1-.23243,1.46325Z"/>
      <path d="M313.55225,138.38245a.75.75,0,0,1-.51563-1.29456c7.06543-6.6925,13.60693-20.10986,11.16943-26.22815-.89746-2.25281-2.98876-3.395-6.21582-3.395q-.4248,0-.85009.02661a.75.75,0,0,1-.09375-1.49707q.47168-.02947.94384-.02954c4.85987,0,6.82032,2.36,7.60938,4.33985,2.94727,7.39746-4.98877,21.675-11.53174,27.87243A.74765.74765,0,0,1,313.55225,138.38245Z"/>
      <path d="M231.3667,228.5332a142.98192,142.98192,0,0,1-26.15234-2.172.25007.25007,0,0,1,.09277-.49146,142.47789,142.47789,0,0,0,26.05957,2.16345c26.62549,0,67.68652-26.70239,67.68652-62.18335,0-5.43127-1.48144-9.84423-2.91406-14.11181-1.37891-4.1062-2.8042-8.35205-2.8042-13.36743,0-10.48755,9.24707-31.06324,23.74414-31.87745a.24211.24211,0,0,1,.26367.2356.25.25,0,0,1-.23535.26367c-14.20947.798-23.27246,21.05286-23.27246,31.37818,0,4.93359,1.34961,8.953,2.77783,13.20825,1.4458,4.30578,2.94043,8.758,2.94043,14.271C299.55322,201.61609,258.189,228.5332,231.3667,228.5332Z"/>
      <path d="M280.00879,87.64233a.25005.25005,0,0,1-.166-.437c3.58887-3.18506,8.26661-6.75122,12.64063-6.05591,2.50928.39991,4.71,2.19056,6.54053,5.32264a.25.25,0,0,1-.43164.25219c-1.77588-3.03857-3.79981-4.70068-6.1875-5.081-4.15918-.66248-8.72315,2.82385-12.23,5.93616A.24983.24983,0,0,1,280.00879,87.64233Z"/>
      <path d="M153.73975,498.07971a.75018.75018,0,0,1-.74707-.69446,54.33382,54.33382,0,0,1-.06641-6.5177c.53906-11.43628,6.10889-25.58593,12.55811-41.96984,9.72363-24.70105,21.8247-55.44251,21.8247-90.45936,0-13.43554-8.08642-35.198-15.99707-54.71423-2.26221-5.58679-4.63916-11.30127-6.938-16.82751-12.603-30.29651-24.50683-58.91272-18.38623-68.08765,1.39063-2.08484,3.63428-3.142,6.669-3.142,10.55908,0,17.11914,3.81116,24.71533,8.22412,8.4707,4.92115,18.07129,10.4989,36.10547,12.85181a145.06862,145.06862,0,0,0,18.76709,1.12415c58.72412,0,84.79932-54.05188,84.79932-74.59607,0-7.874-1.51954-14.02662-2.86036-19.455-.52588-2.12952-1.02246-4.141-1.36914-6.04956-.80175-4.375-1.07129-9.10107,2.356-14.00879a.74989.74989,0,0,1,1.22949.85889c-2.93847,4.20849-2.96875,8.19287-2.10986,12.88073.33838,1.86353.82959,3.85291,1.3501,5.95911,1.36084,5.51135,2.90381,11.75806,2.90381,19.81458,0,10.65136-6.50342,29.63293-20.78174,46.13842-11.82276,13.66651-32.78614,29.95765-65.51758,29.95765a146.56187,146.56187,0,0,1-18.96192-1.13685c-18.332-2.39184-28.07128-8.05-36.66455-13.04211C169.21,220.884,162.812,217.167,152.65674,217.167c-2.53711,0-4.31055.80933-5.42139,2.47437-5.6748,8.50732,6.0791,36.76367,18.52344,66.67907,2.30029,5.52955,4.67871,11.24732,6.94385,16.84046,8.36523,20.639,16.10644,41.62048,16.10644,55.27746,0,35.30152-12.15918,66.1897-21.92871,91.00879-6.40088,16.26-11.92871,30.30262-12.45605,41.48951a52.75741,52.75741,0,0,0,.06445,6.33752.74988.74988,0,0,1-.69238.80347C153.77734,498.0791,153.75879,498.07971,153.73975,498.07971Z"/>
      <path d="M213.38965,237.68982a.24942.24942,0,0,1-.13477-.03943l-.772-.4928c-10.76953-6.86963-27.04492-17.2511-27.8877-45.615a.2502.2502,0,0,1,.24268-.25732.25457.25457,0,0,1,.25732.24243c.83448,28.09949,16.97559,38.39539,27.65674,45.20825l.77246.49329a.25007.25007,0,0,1-.13476.46057Z"/>
      <path d="M213.39014,238.18982a.74854.74854,0,0,1-.57276-.26526,77.05835,77.05835,0,0,1-8.20752-11.4364c-5.291-9.25244-6.50586-17.6759-3.82324-26.5094a.75012.75012,0,0,1,1.43555.43579c-2.55469,8.41138-1.38233,16.45972,3.68945,25.32861a75.63146,75.63146,0,0,0,8.05029,11.21192.74994.74994,0,0,1-.57177,1.23474Z"/>
      <path d="M170.02539,174.76648a.6684.6684,0,0,1-.5625-.30017l-.062-.0929c-23.61621-35.26745-58.59522-47.78247-81.37305-47.78247-13.95849,0-31.6167,6.905-41.99121,16.41956-.01562.0166-.03174.03271-.04883.048-.72216.64807-1.45508,1.37512-2.24072,2.22241a.74993.74993,0,0,1-1.09961-1.02c.81152-.87524,1.57178-1.62939,2.32324-2.30493.01514-.01513.03125-.02966.04785-.0437l-.00146-.00183c10.79395-9.90308,28.48047-16.81946,43.01074-16.81946,24.25733,0,58.7002,12.72827,82.62158,48.45178a.7949.7949,0,0,1-.17529,1.08082A.8043.8043,0,0,1,170.02539,174.76648Z"/>
      <path d="M90.29785,503.97559a.74809.74809,0,0,1-.354-.08912,91.64259,91.64259,0,0,0-14.92041-6.18908.75.75,0,1,1,.46289-1.42676,93.14366,93.14366,0,0,1,15.1665,6.29395.75.75,0,0,1-.355,1.411Z"/>
      <path d="M70.18262,537.51953c-9.9502.00012-19.95459-1.94556-26.418-6.57886-4.19776-3.009-6.54492-6.8623-6.97608-11.45275a13.411,13.411,0,0,1-.07812-1.55579,64.1603,64.1603,0,0,1,3.32422-19.53076c2.35742-7.408,5.6709-14.66858,9.17871-22.35547,7.63428-16.72742,15.52783-34.02429,15.52783-56.37952,0-14.17981-5.49072-28.27893-11.30371-43.20605-5.07275-13.02661-10.31836-26.49683-12.99756-41.98181a115.94435,115.94435,0,0,1-1.74853-20.01075c0-4.64135.07861-9.312.23388-13.88183a.76438.76438,0,0,1,.77491-.72425.75.75,0,0,1,.72412.77515c-.15479,4.553-.23291,9.20642-.23291,13.83093A114.451,114.451,0,0,0,41.918,334.22266c2.65332,15.33679,7.87158,28.73571,12.91748,41.69336,5.86572,15.06213,11.40576,29.28881,11.40576,43.75036,0,22.6814-8.32129,40.915-15.66308,57.0022-3.48877,7.64477-6.78418,14.86548-9.11377,22.18725a62.68907,62.68907,0,0,0-3.25391,19.0763,11.99929,11.99929,0,0,0,.06982,1.39954c.39063,4.15478,2.5293,7.64514,6.3584,10.38989,9.93213,7.12,28.69434,7.6228,42.09424,4.43933,10.3584-2.469,17.02441-6.9043,17.83057-11.86426a6.42146,6.42146,0,0,0,.084-1.06628c0-6.2937-4.94678-12.12574-14.70215-17.334a.74991.74991,0,1,1,.70606-1.32324c10.28271,5.48938,15.49609,11.7666,15.49609,18.65723a7.89987,7.89987,0,0,1-.104,1.30993c-.91992,5.65808-7.83155,10.42652-18.96338,13.08A74.60758,74.60758,0,0,1,70.18262,537.51953Z"/>
      <path d="M39.67529,301.35205l-.02734-.00049a.74989.74989,0,0,1-.72266-.77624c.24512-6.85865.66114-13.47144,1.23633-19.65479a290.90788,290.90788,0,0,1,6.00391-37.96423c1.11133-4.93726,2.23144-9.4231,3.21972-13.38086l.7461-2.99548c1.7666-7.21619,3.22949-13.66211,3.22949-19.45044,0-10.26892-4.27441-17.72217-10.16357-17.72217a.75.75,0,0,1,0-1.5c6.7583,0,11.66357,8.08411,11.66357,19.22217,0,5.95569-1.48242,12.49475-3.273,19.80908l-.74707,3.00024c-.98633,3.94983-2.10449,8.42664-3.21143,13.34656a289.40878,289.40878,0,0,0-5.9746,37.77356c-.57227,6.15552-.98633,12.73962-1.23047,19.56982A.7501.7501,0,0,1,39.67529,301.35205Z"/>
      <path d="M50.85889,227.51038a.74761.74761,0,0,1-.34424-.084c-11.35694-5.87329-16.87793-13.42944-16.87793-23.1,0-4.08973,2.08984-15.56592,8.81787-16.36707a.75.75,0,0,1,.17773,1.4895c-5.33886.63574-7.4956,10.762-7.4956,14.87757,0,12.06335,9.16992,18.20068,16.06738,21.7677a.75017.75017,0,0,1-.34521,1.41626Z"/>
      <path d="M.75244,218.58948a.74877.74877,0,0,1-.65332-1.116A47.8041,47.8041,0,0,1,25.9668,192.03992a53.65843,53.65843,0,0,1,16.521-4.08374.75.75,0,1,1,.11133,1.49585,52.11916,52.11916,0,0,0-16.04932,3.96985A46.33157,46.33157,0,0,0,1.44873,218.13269a.75644.75644,0,0,1-.69629.45679Z"/>
      <path d="M4.24023,195.275l-.36962-.33691.00927-.0094c6.37891-6.83069,19.99024-16.76514,39.43408-6.49243a.2499.2499,0,0,1-.10595.47082c-.19483.00855-.38965.02491-.5918.04187l-.082-.35461C23.67676,178.947,10.46631,188.60754,4.24023,195.275Z"/>
      <path d="M172.00732,304.19238a87.55877,87.55877,0,0,1-21.89941-2.69543c-9.90625-2.53577-18.24219-6.53284-25.93164-10.40967l-2.69092-1.36279c-12.26465-6.2251-23.84961-12.105-39.34424-12.105-.14453.00061-.29736-.00037-.44189.00805a52.10493,52.10493,0,0,0-24.87891,6.2605.75.75,0,1,1-.72851-1.31128,53.55537,53.55537,0,0,1,25.55761-6.448c.13526-.00878.31885-.00927.4917-.00927,15.85352,0,27.59375,5.95874,40.02344,12.26745l2.6875,1.361c7.61524,3.8396,15.86719,7.79749,25.627,10.29566a86.0755,86.0755,0,0,0,21.52832,2.6488.75.75,0,0,1,0,1.5Z"/>
      <path d="M39.6748,301.35669a.74617.74617,0,0,1-.75-.74536v-.00928a.74692.74692,0,0,1,.06348-.30176c3.04395-6.92517,9.27832-13.382,17.10449-17.71472a.75.75,0,1,1,.72657,1.31226C49.28369,288.07,43.29,294.25854,40.37158,300.88037A.75186.75186,0,0,1,39.6748,301.35669Z"/>
      <path d="M150.2583,535.88123a62.14481,62.14481,0,0,1-16.03809-1.91163c-10.38916-2.82751-16.12109-8.44213-16.5747-16.23681-.01953-.332-.0293-.66406-.0293-1.006a107.83559,107.83559,0,0,1,1.08838-14.99854.76139.76139,0,0,1,.02344-.16809c1.55517-11.15015,4.5625-22.15576,7.7456-33.80481,5.43067-19.87317,11.58594-42.398,11.58594-70.84045,0-51.8523-29.50342-71.58753-34.64307-71.58753a6.88378,6.88378,0,0,0-4.34179,1.35547c-2.28223,1.74915-3.48584,5.27832-3.48584,10.20935,0,2.6698,1.583,6.99585,3.5874,12.47266,4.08936,11.17419,10.269,28.06091,10.269,49.96069,0,22.21265-15.1167,55.25232-25.11963,77.11536-4.644,10.15051-8.312,18.168-8.3208,20.54577a.771.771,0,0,1-.23584.55237c-8.04345,7.57984-15.66211,8.82886-20.64258,8.54395a21.50715,21.50715,0,0,1-14.95019-6.97119.74985.74985,0,1,1,1.14648-.9668,20.25273,20.25273,0,0,0,13.88965,6.44043c6.63477.38184,13.30713-2.36182,19.30957-7.93372.272-2.98291,3.728-10.53589,8.43994-20.83484,9.94873-21.74475,24.9834-54.60559,24.9834-76.49133,0-21.634-6.125-38.37036-10.17773-49.44519-2.13574-5.83594-3.67871-10.05249-3.67871-12.98816,0-5.49267,1.36865-9.327,4.06884-11.39636a8.3402,8.3402,0,0,1,5.25879-1.66846c5.36231,0,36.14307,20.14881,36.14307,73.08753,0,28.6438-6.18359,51.2716-11.63867,71.23584-3.13184,11.46-6.09229,22.29333-7.65039,33.212a32.76832,32.76832,0,0,0,11.6001,4.44788c13.79736,2.1803,21.16113-8.78113,21.23339-8.89221a.77334.77334,0,0,1,.75977-.32849,90.52088,90.52088,0,0,1,18.20508,5.39489c9.87988,4.22364,15.4458,9.46607,16.542,15.5813a12.799,12.799,0,0,1,.19824,2.23462c0,5.04273-5.76758,9.71423-15.82373,12.81653A79.15019,79.15019,0,0,1,150.2583,535.88123Zm-30.208-32.90882a105.18,105.18,0,0,0-.93408,13.7544c0,.31213.00879.61535.02637.9187.522,8.95764,8.70166,13.0343,15.47217,14.877,10.65966,2.91089,25.90185,2.37329,37.92822-1.3385,9.24609-2.85242,14.76611-7.10779,14.76611-11.38318a11.34726,11.34726,0,0,0-.1748-1.97119c-1.24707-6.95752-9.20215-11.70691-15.65576-14.4657a89.07641,89.07641,0,0,0-17.41407-5.21411c-1.40088,1.863-7.77392,9.44678-18.61084,9.44788a24.40816,24.40816,0,0,1-3.81543-.30506A33.77978,33.77978,0,0,1,120.05029,502.97241Z"/>
      <path d="M74.82227,528.28394c-15.43946,0-29.3418-3.92505-37.41358-8.65052a.25.25,0,1,1,.25293-.43139c10.84815,6.35107,32.32422,11.24438,53.83984,6.97815a81.41411,81.41411,0,0,0,13.71143-3.996.24988.24988,0,1,1,.18164.46558,81.90256,81.90256,0,0,1-13.79541,4.02087A86.447,86.447,0,0,1,74.82227,528.28394Z"/>
      <path d="M86.90625,535.14063a.25.25,0,0,1-.20166-.39759,35.02284,35.02284,0,0,0,4.61133-8.40478A29.0642,29.0642,0,0,0,90.07275,503.342a.24781.24781,0,0,1-.02441-.1073.25394.25394,0,0,1,.25-.25464.24753.24753,0,0,1,.24121.17993,29.54785,29.54785,0,0,1,1.24512,23.35291,35.52138,35.52138,0,0,1-4.67676,8.52527A.24952.24952,0,0,1,86.90625,535.14063Z"/>
      <path d="M151.56689,526.63391a71.01174,71.01174,0,0,1-19.55322-2.66846,50.59921,50.59921,0,0,1-13.75732-6.0675.25006.25006,0,1,1,.27539-.41748,50.09334,50.09334,0,0,0,13.61963,6.00427c13.439,3.85706,28.78515,3.49243,43.21-1.026a87.248,87.248,0,0,0,12.40039-4.9845.25014.25014,0,0,1,.22168.44849,87.77237,87.77237,0,0,1-12.47266,5.01306A80.40567,80.40567,0,0,1,151.56689,526.63391Z"/>
      <path d="M172.76416,532.15076a.25025.25025,0,0,1-.22949-.34961,36.093,36.093,0,0,0,2.65381-9.13977,31.8664,31.8664,0,0,0-3.63623-19.87024.2502.2502,0,0,1,.44238-.23389,32.36278,32.36278,0,0,1,3.689,20.17627,36.61532,36.61532,0,0,1-2.68994,9.2666A.25021.25021,0,0,1,172.76416,532.15076Z"/>
      <path d="M134.418,533.49609a.25009.25009,0,0,1-.23828-.17419,69.27222,69.27222,0,0,1-2.34375-9.5553,57.26749,57.26749,0,0,1-.32862-17.24707c.93067-7.31006,3.20752-15.17737,7.16456-24.75818,8.85839-21.47058,18.17382-48.02429,26.93847-76.7904,7.83106-25.67762,6.53516-43.8761-5.5459-77.8899-2.50927-7.07116-5.688-15.40222-10.0039-26.21826a.25021.25021,0,0,1,.46484-.1853c4.31787,10.82227,7.499,19.15906,10.01025,26.23633,12.12354,34.13269,13.4209,52.40442,5.55323,78.203-8.76953,28.78089-18.09033,55.35022-26.95508,76.83533-3.93945,9.53882-6.20557,17.3656-7.13037,24.63122a56.77077,56.77077,0,0,0,.32568,17.09974,68.65254,68.65254,0,0,0,2.32715,9.48718.25.25,0,0,1-.23828.3258Z"/>
      <path d="M98.61621,326.348a.23791.23791,0,0,1-.1709-.0719c-11.15234-12.74572-16.71972-28.89575-17.04-49.39343-.21289-13.48535,1.81055-27.182,3.59619-39.26636,1.42774-9.6643,2.77637-18.7926,2.77637-26.36633,0-10.50769-3.03271-21.73486-5.70849-31.6405-2.13135-7.88916-3.97168-14.70264-3.97168-19.80493,0-15.69239,3.1875-26.85682,9.74463-34.131a.24987.24987,0,1,1,.37109.33472c-6.47022,7.17822-9.61572,18.23316-9.61572,33.79627,0,5.036,1.83252,11.8197,3.9541,19.67456,2.68408,9.93566,5.72607,21.1969,5.72607,31.77087,0,7.61047-1.35107,16.75647-2.78174,26.43945-1.78271,12.06543-3.80322,25.74073-3.59082,39.18543.31836,20.37427,5.84522,36.41919,16.89649,49.05163a.252.252,0,0,1-.18555.42151Z"/>
      <path d="M49.99219,339.89661c-3.67481,0-7.34278-1.63025-9.04151-5.44422a.26166.26166,0,0,1-.01172-.03271.31.31,0,0,1-.019-.09693.25006.25006,0,0,1,.49072-.06787l.00147.004c2.27441,5.09033,8.28857,6.05933,12.7959,4.384,4.78076-1.77661,9.377-7.12646,6.59619-16.3573a112.2782,112.2782,0,0,1-4.59766-39.05615.25755.25755,0,0,1,.25537-.24231.246.246,0,0,1,.24414.24524v.00928a111.8403,111.8403,0,0,0,4.57666,38.89941c2.88086,9.56287-1.917,15.11853-6.90087,16.97058A12.69765,12.69765,0,0,1,49.99219,339.89661Z"/>
      <path d="M152.25439,337.13928a10.48343,10.48343,0,0,1-4.435-1.11328,18.6356,18.6356,0,0,1-9.52246-11.38415c-2.16407-8.0741-9.49219-25.92286-14.00147-34.10352a.24985.24985,0,1,1,.4375-.24145c4.52344,8.20605,11.87549,26.1134,14.04736,34.21582a18.10581,18.10581,0,0,0,9.25342,11.06164c2.4751,1.17456,4.80371,1.38635,6.55664.59485,4.95362-2.23657,5.1211-4.54016,5.45557-9.12952l.2539-.04223.24952.01819c-.34229,4.69641-.52832,7.25024-5.75293,9.60925A6.14012,6.14012,0,0,1,152.25439,337.13928Z"/>
      <path d="M46.89746,243.37085a.24912.24912,0,0,1-.07373-.01123c-12.5581-3.87964-20.7373-10.61633-24.31055-20.02271-4.29443-11.30627-.78222-23.62329,3.53077-30.73547a.25009.25009,0,0,1,.42773.25928c-4.25439,7.01587-7.72168,19.16064-3.49072,30.2987,3.51513,9.255,11.58691,15.89063,23.99023,19.72242a.25009.25009,0,0,1-.07373.489Z"/>
    </g>
  </g>

        </g>
    </g>
</g>

<!-- ITEM 9 -->
<g>
    <defs>
        
        <clipPath id="clip-path-id-viewbox-item-9">
            <rect x="0.0" y="0.0" width="81.28236" height="17.50114"/>
        </clipPath>
    </defs>
    <g transform="translate(245.0 315.0) rotate(0.0 68.0 15.0) scale(1.6731797649576121 1.7141740480905816)">
        <g clip-path="url(#clip-path-id-viewbox-item-9)" transform="translate(-0.0 -0.0)">

  
  <g>
    <circle cx="8.75057" cy="8.75057" r="8.75057" style="         fill: #f85750;       "/>
    <circle cx="40.64118" cy="8.75057" r="8.75057" style="         fill: #ffd14a;       "/>
    <circle cx="72.53179" cy="8.75057" r="8.75057" style="         fill: #62b57f;       "/>
  </g>

        </g>
    </g>
</g>

<!-- ITEM 10 -->
<g>
    <defs>
        
        <clipPath id="clip-path-id-viewbox-item-10">
            <rect x="0.0" y="0.0" width="148.19" height="28.52"/>
        </clipPath>
    </defs>
    <g transform="translate(498.0 1135.0) rotate(0.0 88.5 17.5) scale(1.1944125784465889 1.2272089761570828)">
        <g clip-path="url(#clip-path-id-viewbox-item-10)" transform="translate(-0.0 -0.0)">

<g>
	<circle style="fill:#1E5C9A;" cx="133.93" cy="14.26" r="13.01"/>
	<path style="fill:#1E5C9A;" d="M74.09,1.25c7.19,0,13.01,5.83,13.01,13.01s-5.82,13.01-13.01,13.01c-7.18,0-13-5.83-13-13.01   S66.91,1.25,74.09,1.25z"/>
	<path style="fill:#1E5C9A;" d="M14.26,1.25c7.18,0,13,5.83,13,13.01s-5.82,13.01-13,13.01c-7.19,0-13.01-5.83-13.01-13.01   S7.07,1.25,14.26,1.25z"/>
	<path d="M14.26,28.52C6.397,28.52,0,22.124,0,14.26S6.397,0,14.26,0c7.857,0,14.25,6.397,14.25,14.261S22.117,28.52,14.26,28.52z    M14.26,2.5C7.776,2.5,2.5,7.775,2.5,14.26c0,6.484,5.275,11.76,11.76,11.76c6.479,0,11.75-5.275,11.75-11.76   C26.01,7.775,20.739,2.5,14.26,2.5z"/>
	<path d="M133.93,28.52c-7.863,0-14.26-6.396-14.26-14.26S126.067,0,133.93,0c7.863,0,14.26,6.397,14.26,14.261   S141.793,28.52,133.93,28.52z M133.93,2.5c-6.484,0-11.76,5.275-11.76,11.761c0,6.484,5.275,11.76,11.76,11.76   c6.485,0,11.76-5.275,11.76-11.76C145.69,7.775,140.415,2.5,133.93,2.5z"/>
	<path d="M74.09,28.52c-7.857,0-14.25-6.396-14.25-14.26S66.233,0,74.09,0c7.863,0,14.26,6.397,14.26,14.261   S81.953,28.52,74.09,28.52z M74.09,2.5c-6.479,0-11.75,5.275-11.75,11.761c0,6.484,5.271,11.76,11.75,11.76   c6.485,0,11.76-5.275,11.76-11.76C85.85,7.775,80.575,2.5,74.09,2.5z"/>
</g>

        </g>
    </g>
</g>

<!-- ITEM 11 -->
<g>
    <defs>
        
        <clipPath id="clip-path-id-viewbox-item-11">
            <rect x="0.0" y="0.0" width="9.36263" height="9.36263"/>
        </clipPath>
    </defs>
    <g transform="translate(1148.0 497.0) rotate(0.0 7.5 7.5) scale(1.602113935934668 1.602113935934668)">
        <g clip-path="url(#clip-path-id-viewbox-item-11)" transform="translate(-0.0 -0.0)">

  <circle cx="4.68132" cy="4.68132" r="4.68132"/>

        </g>
    </g>
</g>

<!-- ITEM 12 -->
<g>
    <defs>
        
        <clipPath id="clip-path-id-viewbox-item-12">
            <rect x="0.0" y="0.0" width="75.85734" height="85.44007"/>
        </clipPath>
    </defs>
    <g transform="translate(1302.0 342.0) rotate(14.602529147196092 -68.5 77.5) scale(-1.8060216717327553 1.8141370904775709)">
        <g clip-path="url(#clip-path-id-viewbox-item-12)" transform="translate(-0.0 -0.0)">

  
  <g>
    <path d="M40.18028,84.1073c12.69178-1.10389,37.2286-9.0188,34.46132-40.83518-2.26893-26.08667-25.01785-38.51-33.13782-42.13856a1.48224,1.48224,0,0,0-2.04748,1.7149C41.04622,9.1403,43.86418,24.341,37.26146,34.43623A40.59316,40.59316,0,0,0,26.5144,19.62037,1.48515,1.48515,0,0,0,24.087,20.94859a47.331,47.331,0,0,1-3.28162,23.67769,34.41857,34.41857,0,0,0-8.41578-10.05505,1.48432,1.48432,0,0,0-2.41026,1.0051C8.59281,49.84408.25519,56.08142,1.05378,65.26313,1.9006,74.99929,12.015,86.557,40.18028,84.1073Z" style="         fill: #85aab4;       "/>
    <path d="M32.76453,85.44425c-9.47949,0-17.16528-1.78717-22.91724-5.33844C2.026,75.27689.35657,68.788.0575,65.34977c-.418-4.808,1.47168-8.73993,3.65991-13.29266,2.14771-4.46863,4.58228-9.53357,5.2666-16.57752a2.48432,2.48432,0,0,1,4.0376-1.68335,36.6539,36.6539,0,0,1,7.61524,8.55609,47.55932,47.55932,0,0,0,2.45751-21.28277,2.4851,2.4851,0,0,1,4.05811-2.21912,41.1572,41.1572,0,0,1,10.219,13.43079C42.535,22.51755,39.921,8.769,38.4867,3.09348a2.48232,2.48232,0,0,1,3.425-2.87286c7.31958,3.27093,31.384,16.03607,33.72607,42.96484,1.241,14.26807-2.72681,25.301-11.79272,32.7923-8.63721,7.13684-19.36621,8.7594-23.57813,9.12573l-.08667-.99621.08667.99621Q36.34888,85.44435,32.76453,85.44425ZM11.46424,35.23887a.51412.51412,0,0,0-.19434.03937.4704.4704,0,0,0-.29516.39471C10.256,43.07017,7.73987,48.305,5.5199,52.9235c-2.06079,4.28778-3.84057,7.99084-3.46972,12.253.26635,3.06445,1.77026,8.85779,8.84765,13.22754,6.73047,4.15521,16.82617,5.78265,29.1958,4.707,4.02539-.35016,14.27368-1.8963,22.4773-8.675C71.1,67.38853,74.82581,56.93265,73.64515,43.3588c-2.186-25.1355-23.491-37.26428-32.54932-41.31225a.47521.47521,0,0,0-.51489.06988.46175.46175,0,0,0-.15528.48718c1.57959,6.25043,4.51514,21.91816-2.32739,32.38a1,1,0,0,1-1.75464-.15015A39.71038,39.71038,0,0,0,25.8761,20.3903a.48518.48518,0,0,0-.79638.43731,47.90086,47.90086,0,0,1-3.36988,24.22492,1.00021,1.00021,0,0,1-1.79858.02154,33.77656,33.77656,0,0,0-8.15357-9.72784A.45538.45538,0,0,0,11.46424,35.23887Z"/>
    <path d="M64.0719,74.71433a.24953.24953,0,0,1-.21826-.12787c-.73071-1.30462-.18384-2.15167.50879-3.22412.11743-.182.241-.373.36475-.57678a10.00825,10.00825,0,0,1,1.2622-1.55884,10.89824,10.89824,0,0,0,1.09449-1.30981c.63061-.94391.83471-2.26367.00464-2.95978a3.70469,3.70469,0,0,0-.62354-.38855,2.254,2.254,0,0,1-1.0647-.898,1.84726,1.84726,0,0,1,.78321-2.1236c.1997-.16.41528-.30493.63086-.4494a4.186,4.186,0,0,0,1.03173-.85742c.79712-1.04077.21656-2.30444-.3977-3.64233-.56812-1.23688-1.15552-2.51593-.75757-3.77985a5.23657,5.23657,0,0,1,1.08862-1.71179,4.70228,4.70228,0,0,0,1.002-1.56507c.33545-1.11657-.28394-2.22-.9397-3.38818-.70117-1.249-1.42627-2.54053-.90527-3.88635a4.84325,4.84325,0,0,1,.55419-.965,5.77682,5.77682,0,0,0,.41846-.67688,3.72221,3.72221,0,0,0,.28858-2.08075,7.05674,7.05674,0,0,0-2.76978-4.83233c-.35742-.27277-1.10132-.84052-.82251-1.5318a1.43059,1.43059,0,0,1,.73779-.66108,2.80235,2.80235,0,0,0,.32984-.19586c.88305-.647.22485-2.03973-.24658-2.68579a14.06636,14.06636,0,0,0-3.37867-3.27881l-.15039-.10327a3.51934,3.51934,0,0,1-1.65014-1.81024,3.1206,3.1206,0,0,1,.12353-1.55737,3.20515,3.20515,0,0,0,.1543-1.18079c-.14917-1.12744-1.42407-1.61914-2.77393-2.13965-1.36841-.52771-2.78344-1.07342-3.16821-2.36621a3.92419,3.92419,0,0,1-.05615-1.49078,2.574,2.574,0,0,0-.15674-1.5456c-.38892-.66833-1.27124-.8551-2.20532-1.05279-.3645-.07715-.74146-.15692-1.08985-.26837a4.283,4.283,0,0,1-2.9436-3.24842c-.04565-.2611-.06738-.53363-.08862-.80633A2.60161,2.60161,0,0,0,47.497,6.034a3.18093,3.18093,0,0,0-1.94262-.59692c-.25684-.026-.51319-.05213-.75953-.09253a4.98882,4.98882,0,0,1-4.11767-3.93939.25.25,0,1,1,.49389-.07788,4.47755,4.47755,0,0,0,3.70484,3.52386c.23633.03882.48218.06354.72876.08844a3.57381,3.57381,0,0,1,2.241.73609,3.00455,3.00455,0,0,1,.69555,2.07379c.02.25671.0398.51336.08277.75909A3.82888,3.82888,0,0,0,51.22718,11.367c.32422.1037.68872.18079,1.041.25537a3.49665,3.49665,0,0,1,2.53394,1.29053,2.97708,2.97708,0,0,1,.22265,1.842,3.50856,3.50856,0,0,0,.03711,1.3031c.315,1.05737,1.61329,1.55817,2.86914,2.04242,1.42652.55011,2.90137,1.119,3.0896,2.54053a3.6227,3.6227,0,0,1-.165,1.36926,2.71323,2.71323,0,0,0-.124,1.311c.16333.64045.81665,1.08826,1.44849,1.52137l.15185.10437a14.55856,14.55856,0,0,1,3.49829,3.39544c.825,1.13025,1.1875,2.61493.13819,3.38385a3.30932,3.30932,0,0,1-.38843.23285c-.22754.12232-.44238.23786-.51074.4076-.12012.298.26709.64617.66186.94751a7.55942,7.55942,0,0,1,2.96411,5.178,4.262,4.262,0,0,1-.33813,2.35456,6.21567,6.21567,0,0,1-.45361.73657,4.41065,4.41065,0,0,0-.50074.86371c-.43579,1.1261.20093,2.26031.875,3.46118.678,1.20782,1.37915,2.45685.98267,3.77673a5.14,5.14,0,0,1-1.09717,1.7417,4.79793,4.79793,0,0,0-.99536,1.54151c-.34009,1.0802.2063,2.2702.73486,3.421.64917,1.41357,1.32032,2.87518.34034,4.155a4.61833,4.61833,0,0,1-1.15039.96868c-.20362.13654-.40772.27308-.59644.42426-.49707.39868-.89038,1.02087-.64771,1.512a1.87668,1.87668,0,0,0,.85376.67932,4.1208,4.1208,0,0,1,.70752.44568c1.05542.8852.84424,2.4914.08985,3.62055a11.29412,11.29412,0,0,1-1.14356,1.37213,9.49021,9.49021,0,0,0-1.20166,1.47858c-.12622.20782-.25219.40258-.37207.58825-.67114,1.03931-1.07617,1.66663-.49267,2.70856a.25006.25006,0,0,1-.21778.37219Z"/>
    <path d="M58.46009,78.50187a2.89429,2.89429,0,0,1-2.13233-4.88959,6.36359,6.36359,0,0,1,.99146-.79352c.6123-.42657,1.19067-.82946,1.28393-1.46588.10181-.69525-.44067-1.3642-.96533-2.011-.64844-.7995-1.31885-1.62616-.8645-2.58093a2.50779,2.50779,0,0,1,1.25977-1.05621,3.15756,3.15756,0,0,0,.90258-.59925c.76319-.8338.21143-2.27825-.061-2.86053l-.169-.35388a4.57169,4.57169,0,0,1-.67993-2.96436,4.47287,4.47287,0,0,1,1.55444-2.13318,3.89438,3.89438,0,0,0,1.41016-1.92572,3.87843,3.87843,0,0,0-.56592-2.32788,4.58592,4.58592,0,0,1-.63208-2.52893,4.47415,4.47415,0,0,1,.6897-1.63525c.12793-.21686.25635-.4339.36548-.65759a4.65554,4.65554,0,0,0-1.86914-5.90088c-.08863-.04877-.17993-.09546-.27149-.14234a2.65436,2.65436,0,0,1-1.08764-.821c-.58228-.8714-.07886-1.871.36523-2.75293.11963-.23761.23828-.473.33472-.70252a3.84724,3.84724,0,0,0-1.53076-4.60553c-.241-.14172-.50367-.264-.78174-.39337a3.14094,3.14094,0,0,1-1.90039-1.59,3.15694,3.15694,0,0,1-.1272-1.096l-.00073-.24469a5.78024,5.78024,0,0,0-2.73706-4.75031c-.19116-.11529-.3938-.22509-.59815-.33569-.87036-.47168-1.77051-.95941-2.03027-1.93652a3.41142,3.41142,0,0,1,.1145-1.694c.05469-.22785.10986-.45606.14209-.684a3.47855,3.47855,0,0,0-1.69116-3.41291,8.03342,8.03342,0,0,0-.85059-.38867,3.30576,3.30576,0,0,1-1.85717-1.32818,3.35088,3.35088,0,0,1-.20337-1.93445c.01416-.15778.02856-.31494.03662-.46991a3.49358,3.49358,0,0,0-.66187-2.40912,1.952,1.952,0,0,0-2.16113-.6698.25.25,0,1,1-.189-.46289,2.4602,2.4602,0,0,1,2.73731.816,3.98911,3.98911,0,0,1,.77417,2.75238c-.00879.16095-.02344.32422-.03809.48816a2.9447,2.9447,0,0,0,.14673,1.65448,2.90417,2.90417,0,0,0,1.606,1.10089,8.41567,8.41567,0,0,1,.90454.41467,3.94255,3.94255,0,0,1,1.94214,3.91956c-.03443.24328-.09253.48706-.15088.73034a2.9957,2.9957,0,0,0-.11743,1.44892c.2041.76861.97217,1.18475,1.78515,1.6253.21094.11438.42041.228.61817.34711a6.29147,6.29147,0,0,1,2.97876,5.17011l.00073.25476a2.75176,2.75176,0,0,0,.0979.9262c.23193.649.91626.96759,1.64087,1.30481.27637.12873.56226.26178.824.41578a4.31108,4.31108,0,0,1,1.73829,5.22985c-.10059.23981-.22413.48578-.34913.734-.41992.83368-.8164,1.62116-.39624,2.25025a2.258,2.258,0,0,0,.89991.65368c.09594.04914.19165.09821.28491.14936a5.17453,5.17453,0,0,1,2.07715,6.55835c-.11475.23541-.24951.464-.384.69226a4.04394,4.04394,0,0,0-.62524,1.45,4.16578,4.16578,0,0,0,.59058,2.25,4.29512,4.29512,0,0,1,.60254,2.63659,4.313,4.313,0,0,1-1.56128,2.19477,4.05455,4.05455,0,0,0-1.40723,1.8808,4.15247,4.15247,0,0,0,.644,2.63226l.17139.35883c.39136.83642.90918,2.39166-.02319,3.41009a3.5678,3.5678,0,0,1-1.04175.70587,2.11635,2.11635,0,0,0-1.0376.82685c-.31885.67.2002,1.31.80127,2.05114a3.25522,3.25522,0,0,1,1.07153,2.39844c-.12451.85053-.82007,1.33508-1.49267,1.80371a5.99479,5.99479,0,0,0-.915.72772,2.39706,2.39706,0,0,0,2.17529,4.00818.25.25,0,1,1,.09131.49158A2.71362,2.71362,0,0,1,58.46009,78.50187Z"/>
    <path d="M50.329,82.30833a.2504.2504,0,0,1-.2373-.329c.29736-.89319.38476-1.55939-.15576-1.90723l-.29-.18244a3.38442,3.38442,0,0,1-1.67749-1.7099c-.32154-1.07208.37134-2.0379,1.04126-2.97192.64477-.89892,1.2539-1.748.821-2.54352a3.27954,3.27954,0,0,0-.89111-.88769c-.56226-.43836-1.19922-.93512-1.04273-1.722a1.98315,1.98315,0,0,1,.7815-1.06042c.07739-.066.1543-.13178.22656-.19922a3.02568,3.02568,0,0,0,.7898-3.073,6.27134,6.27134,0,0,0-.35181-.801,4.42236,4.42236,0,0,1-.49048-1.34253c-.18091-1.2973.66943-2.319,1.49194-3.307a11.44721,11.44721,0,0,0,.96412-1.272,4.72557,4.72557,0,0,0-.11084-4.98145c-.06788-.10022-.14014-.199-.21265-.298a3.05733,3.05733,0,0,1-.63843-1.23181,3.02078,3.02078,0,0,1,.64014-2.08289,6.99572,6.99572,0,0,0,.44556-.8258c.77514-1.83081-.49048-3.93964-2.08838-5.21747l-.20069-.15955c-1.03784-.82324-2.32934-1.84772-2.10058-3.25018a3.4938,3.4938,0,0,1,.47216-1.14087c.09766-.17365.19581-.34747.2754-.5282a3.94106,3.94106,0,0,0-.39917-3.5094A12.21834,12.21834,0,0,0,44.8263,32.96c-1.00049-.89124-1.91382-1.88483-1.824-3.10987a4.03329,4.03329,0,0,1,.38062-1.27777,5.52844,5.52844,0,0,0,.2854-.77484,2.70507,2.70507,0,0,0-2.2439-3.20721.25.25,0,0,1,.04932-.49756,3.20335,3.20335,0,0,1,2.679,3.829,5.98885,5.98885,0,0,1-.30957.846,3.6109,3.6109,0,0,0-.34228,1.11889c-.07764,1.05933.81518,1.9491,1.658,2.7a12.585,12.585,0,0,1,2.66382,2.93518,4.43543,4.43543,0,0,1,.425,3.96283c-.08593.19555-.1914.384-.29711.5719a3.07028,3.07028,0,0,0-.41431.97619c-.18164,1.11274.93359,1.99744,1.91772,2.778l.20191.16076c1.7456,1.39557,3.114,3.73108,2.23681,5.80292a7.35189,7.35189,0,0,1-.4768.88745,2.62656,2.62656,0,0,0-.57764,1.7359,2.65081,2.65081,0,0,0,.55029,1.027c.07593.10388.15186.20764.22315.31281a5.24035,5.24035,0,0,1,.123,5.52362,11.8522,11.8522,0,0,1-1.00611,1.33014c-.7876.9461-1.53149,1.83972-1.3811,2.918a3.99665,3.99665,0,0,0,.44336,1.18982,6.70015,6.70015,0,0,1,.37842.866,3.49315,3.49315,0,0,1-.92383,3.59583c-.07715.072-.15943.14239-.24195.213a1.57839,1.57839,0,0,0-.61645.7782c-.08984.45184.26489.76611.85986,1.23a3.6263,3.6263,0,0,1,1.023,1.043c.58277,1.07111-.14746,2.08923-.854,3.07391-.6272.87427-1.21948,1.70014-.96851,2.53681.19116.63708.83765,1.03973,1.46289,1.42914l.29615.18646c.97778.62915.5603,1.883.35986,2.48559A.25027.25027,0,0,1,50.329,82.30833Z"/>
    <path d="M40.1803,84.35734a.25.25,0,0,1-.08764-.48419.79479.79479,0,0,0,.49536-.545,1.9283,1.9283,0,0,0-.33155-1.56073c-.1416-.19647-.28344-.36639-.4165-.526a2.557,2.557,0,0,1-.7998-1.80023,3.38336,3.38336,0,0,1,.83447-1.9212,4.26779,4.26779,0,0,0,.71216-1.28168,4.12444,4.12444,0,0,0-.27662-2.26019,3.35232,3.35232,0,0,1,.54566-3.94581c.113-.14587.22607-.29162.33057-.44146a5.36979,5.36979,0,0,0,.7185-4.54383c-.1145-.37548-.27637-.76165-.43286-1.13507a4.67741,4.67741,0,0,1-.54614-3.02472,4.73108,4.73108,0,0,1,1.02221-1.69854,4.19306,4.19306,0,0,0,.93335-1.54053c.28247-1.119-.42065-2.14825-1.165-3.238-.741-1.08441-1.50683-2.20575-1.31469-3.49609a4.93852,4.93852,0,0,1,.82959-1.85181,4.23186,4.23186,0,0,0,.76538-1.73657A4.12365,4.12365,0,0,0,40.73377,44.526a6.6229,6.6229,0,0,1-1.37354-2.39765,6.11782,6.11782,0,0,1,.37452-3.19714c.13159-.43658.26733-.88812.35424-1.32745a2.12766,2.12766,0,0,0-.5708-1.69684,3.25927,3.25927,0,0,0-2.25561-1.2207h-.00122a.25012.25012,0,0,1-.25-.24884.25561.25561,0,0,1,.25927-.25116,3.665,3.665,0,0,1,2.63306,1.4024,2.58113,2.58113,0,0,1,.676,2.11218c-.0918.4632-.23121.92646-.366,1.37451a5.66047,5.66047,0,0,0-.36719,2.93628A6.2589,6.2589,0,0,0,41.12928,44.22a4.53873,4.53873,0,0,1,1.3645,3.15753,4.65823,4.65823,0,0,1-.83862,1.94989,4.5008,4.5008,0,0,0-.75879,1.66034c-.16333,1.09643.51489,2.08923,1.23291,3.14032.77417,1.13324,1.57446,2.30505,1.23706,3.64239a4.6268,4.6268,0,0,1-1.03028,1.73365,4.29454,4.29454,0,0,0-.92724,1.51336,4.25387,4.25387,0,0,0,.52441,2.70124c.16113.38488.32813.78289.45,1.18255a5.881,5.881,0,0,1-.78662,4.97583c-.10937.15656-.22729.309-.34521.46131a2.88658,2.88658,0,0,0-.46289,3.4934,4.55206,4.55206,0,0,1,.28076,2.53833,4.7,4.7,0,0,1-.78687,1.43927,2.97719,2.97719,0,0,0-.74218,1.63208,2.1065,2.1065,0,0,0,.68383,1.47974c.14014.168.28907.347.43824.55383a2.421,2.421,0,0,1,.40429,1.99793,1.28776,1.28776,0,0,1-.79858.86841A.24991.24991,0,0,1,40.1803,84.35734Z"/>
    <path d="M34.48743,84.56339a.24886.24886,0,0,1-.12183-.03186,4.41164,4.41164,0,0,1-1.42309-6.10986c.08618-.12537.17993-.24707.27368-.36865a2.92567,2.92567,0,0,0,.53442-.88349A3.01254,3.01254,0,0,0,33.101,74.901a3.45722,3.45722,0,0,1-.70484-2.64722,3.36291,3.36291,0,0,1,.5835-1.03674,4.66485,4.66485,0,0,0,.38818-.58747c.55518-1.06427.14673-2.25586-.28564-3.51739a8.27613,8.27613,0,0,1-.61109-2.77942,7.6544,7.6544,0,0,1,.76734-2.75922,5.819,5.819,0,0,0,.68823-2.97442,5.93194,5.93194,0,0,0-.792-1.98108,5.86982,5.86982,0,0,1-.86182-2.32288,5.94711,5.94711,0,0,1,.6228-2.65136c.97-2.40162,1.885-5.42811.3357-7.53089a9.30412,9.30412,0,0,0-.83814-.93713,3.84956,3.84956,0,0,1-1.44092-2.47162A3.89258,3.89258,0,0,1,31.255,39.3082c.04053-.11621.0813-.23217.11865-.34845a6.46115,6.46115,0,0,0-1.51709-6.35785c-.18237-.18493-.37768-.36071-.57275-.53656a5.37493,5.37493,0,0,1-1.363-1.59979,5.3555,5.3555,0,0,1-.09058-3.33917,13.25407,13.25407,0,0,0,.20313-1.38873,5.94018,5.94018,0,0,0-2.98486-5.47681.25.25,0,0,1,.24023-.4386,6.45417,6.45417,0,0,1,3.24316,5.95136,13.54491,13.54491,0,0,1-.20971,1.44238,4.91964,4.91964,0,0,0,.04956,3.03351A4.931,4.931,0,0,0,29.61853,31.694c.2024.18243.40479.36493.594.55676a6.97267,6.97267,0,0,1,1.63721,6.86163c-.03858.12055-.08081.24085-.123.36133a3.47272,3.47272,0,0,0-.27442,1.2168,3.44309,3.44309,0,0,0,1.29859,2.13574,9.62636,9.62636,0,0,1,.88281.99011c1.69629,2.30213.74439,5.49249-.27466,8.01477a5.58123,5.58123,0,0,0-.58764,2.42682,5.42243,5.42243,0,0,0,.80273,2.12183,6.39278,6.39278,0,0,1,.84815,2.15258,6.27619,6.27619,0,0,1-.72266,3.23414,7.285,7.285,0,0,0-.72852,2.57605,7.91731,7.91731,0,0,0,.584,2.60754c.44775,1.30585.9104,2.65619.2561,3.91071a5.135,5.135,0,0,1-.42822.65191,2.94194,2.94194,0,0,0-.50635.88025,3.0667,3.0667,0,0,0,.6582,2.25952,3.40253,3.40253,0,0,1,.69385,2.664,3.342,3.342,0,0,1-.61645,1.04193c-.08838.11451-.17676.22889-.25806.34687a3.91365,3.91365,0,0,0,1.25562,5.38989.25.25,0,0,1-.12232.46826Z"/>
    <path d="M24.61219,84.20994a.938.938,0,0,1-.6333-.26837,3.24928,3.24928,0,0,1-.82935-2.382A4.3915,4.3915,0,0,1,24.46961,79.321,3.38362,3.38362,0,0,0,25.579,77.25608a3.58363,3.58363,0,0,0-.53564-1.57813,2.54294,2.54294,0,0,1,.29687-3.55017,4.07632,4.07632,0,0,0,.6482-.9353c.44409-1.01568-.08423-2.09393-.64331-3.23547a4.95755,4.95755,0,0,1-.78028-3.48291,4.735,4.735,0,0,1,.592-1.18781,4.37344,4.37344,0,0,0,.53028-1.04138c.32226-1.08691-.26782-2.1264-.89258-3.22687A6.61371,6.61371,0,0,1,23.691,56.0861a6.753,6.753,0,0,1,1.12452-3.33576c.67749-1.25146,1.31738-2.43353.8186-3.59491a4.45377,4.45377,0,0,0-.64771-.97473,3.69643,3.69643,0,0,1-.8291-1.454,3.67265,3.67265,0,0,1,.70093-2.5744,7.78372,7.78372,0,0,0,.571-1.17584,3.40679,3.40679,0,0,0-1.91553-4.10791.25.25,0,1,1,.17822-.46717,3.87856,3.87856,0,0,1,2.20947,4.739,8.15151,8.15151,0,0,1-.6062,1.25476,3.26862,3.26862,0,0,0-.65014,2.222,3.27733,3.27733,0,0,0,.73291,1.25263,4.90725,4.90725,0,0,1,.71557,1.08838c.59448,1.38385-.134,2.72918-.83838,4.03027a6.4024,6.4024,0,0,0-1.06469,3.08,6.25925,6.25925,0,0,0,1.03881,2.70282c.64893,1.14306,1.32007,2.325.93726,3.6159a4.82386,4.82386,0,0,1-.58545,1.1637,4.28639,4.28639,0,0,0-.5354,1.06048c-.28809,1.0105.21533,2.038.74829,3.1258.58472,1.1936,1.18945,2.42779.65235,3.65576a4.5043,4.5043,0,0,1-.72242,1.05542,2.07924,2.07924,0,0,0-.23584,3.00116,3.99831,3.99831,0,0,1,.59082,1.808,3.72622,3.72622,0,0,1-1.20727,2.36444,4.04451,4.04451,0,0,0-1.22608,2.00183,2.74327,2.74327,0,0,0,.667,1.94556c.19531.17493.3291.14246.37329.13184a.24994.24994,0,1,1,.11767.48584A.80921.80921,0,0,1,24.61219,84.20994Z"/>
    <path d="M15.19666,81.86948a.25049.25049,0,0,1-.22925-.14953,4.47749,4.47749,0,0,1,.89966-4.66449c.08374-.10395.17212-.20465.26074-.30536a3.59631,3.59631,0,0,0,.51367-.684c.48267-.924.05469-2.0199-.39819-3.18018-.50122-1.28387-1.01929-2.61151-.16675-3.69549a3.696,3.696,0,0,1,.58667-.559,3.973,3.973,0,0,0,.44214-.39978c.70825-.78711.7124-2.05176.01221-3.86622-.51782-1.34185-1.16236-3.01178-.40235-4.39361a4.89973,4.89973,0,0,1,.59107-.801,4.29437,4.29437,0,0,0,.54932-.74694c.63232-1.1966-.04371-2.5207-.75928-3.92261-.72144-1.413-1.46729-2.87421-.8667-4.30286a4.94438,4.94438,0,0,1,.625-1.00683,4.70714,4.70714,0,0,0,.54956-.8642c.6272-1.41058-.34668-3.02637-.98291-3.86389-.19629-.25824-.40357-.51239-.61109-.767a8.04237,8.04237,0,0,1-1.81176-3.04565,2.88253,2.88253,0,0,1,.01074-1.48517,2.76938,2.76938,0,0,0,.05469-1.20191,6.348,6.348,0,0,0-2.20435-3.25024.90613.90613,0,0,0-.70068-.1853.25.25,0,0,1-.13526-.48145,1.36742,1.36742,0,0,1,1.103.244,6.86294,6.86294,0,0,1,2.42993,3.58826,3.26494,3.26494,0,0,1-.05884,1.39276,2.40163,2.40163,0,0,0-.01391,1.25952,7.672,7.672,0,0,0,1.71411,2.84924c.21118.259.42188.51764.62134.7804.70312.92547,1.77344,2.72381,1.042,4.36956a5.16475,5.16475,0,0,1-.60449.95832,4.49534,4.49534,0,0,0-.56616.90332c-.5105,1.21448.15087,2.51007.85107,3.88177.74219,1.45386,1.50952,2.95728.75586,4.38355a4.71653,4.71653,0,0,1-.61035.837,4.47541,4.47541,0,0,0-.53394.71827c-.6477,1.17791-.0747,2.66265.43067,3.97259.77465,2.00714.73974,3.44013-.10694,4.3808a4.41323,4.41323,0,0,1-.49682.452,3.261,3.261,0,0,0-.5105.48139c-.676.85937-.2312,1.99853.2395,3.20459.47363,1.21338.96338,2.468.37573,3.59344a4.0408,4.0408,0,0,1-.58154.78266c-.08374.09527-.16772.19055-.24707.28894a3.99709,3.99709,0,0,0-.83081,4.14972.25019.25019,0,0,1-.22876.35058Z"/>
    <path d="M7.02723,77.02415A.24987.24987,0,0,1,6.85,76.9506a1.14763,1.14763,0,0,1,.12769-1.51666,2.72945,2.72945,0,0,1,.24218-.23664,2.25135,2.25135,0,0,0,.91919-2.424L7.00257,70.56357a.26114.26114,0,0,1-.02246-.06445A2.49514,2.49514,0,0,1,8.1366,67.9202a2.60194,2.60194,0,0,0,1.20874-2.64972,5.36355,5.36355,0,0,0-.4646-1.17224A4.50549,4.50549,0,0,1,8.327,62.44376a4.52752,4.52752,0,0,1,1.06543-2.74395,4.56258,4.56258,0,0,0,1.00464-2.30292,4.83007,4.83007,0,0,0-.89087-2.38349,3.981,3.981,0,0,1-.82764-3.07647,4.04814,4.04814,0,0,1,.41919-.8949,5.44618,5.44618,0,0,0,.28565-.54309,2.67337,2.67337,0,0,0-1.46509-3.41339.25.25,0,0,1,.17285-.46924,3.17186,3.17186,0,0,1,1.75122,4.08075,5.89192,5.89192,0,0,1-.311.59381,3.62923,3.62923,0,0,0-.37232.78375,3.57819,3.57819,0,0,0,.77954,2.68744,5.18743,5.18743,0,0,1,.9585,2.64642,4.99226,4.99226,0,0,1-1.08814,2.568,4.10529,4.10529,0,0,0-.98291,2.43341,4.06573,4.06573,0,0,0,.50415,1.46924,5.80877,5.80877,0,0,1,.50342,1.28393,3.109,3.109,0,0,1-1.426,3.17743,2.00246,2.00246,0,0,0-.94361,2.027L8.60242,72.592a2.75569,2.75569,0,0,1-1.04687,2.97583,2.19822,2.19822,0,0,0-.19263.185c-.18872.22767-.36231.64026-.15845.84485a.25.25,0,0,1-.17724.42646Z"/>
  </g>

        </g>
    </g>
</g>

<!-- ITEM 13 -->
<g>
    <defs>
        
        <clipPath id="clip-path-id-viewbox-item-13">
            <rect x="0.0" y="0.0" width="29.17806" height="15.08903"/>
        </clipPath>
    </defs>
    <g transform="translate(1113.0 551.0) rotate(8.056902783046732 22.0 12.0) scale(1.507982367573444 1.5905594991858325)">
        <g clip-path="url(#clip-path-id-viewbox-item-13)" transform="translate(-0.0 -0.0)">

  
  <g>
    <g>
      <path d="M.5.5H28.67806a14.09559,14.09559,0,0,1-8.7467,13.04267l-.00736-.01474A11.2757,11.2757,0,0,0,2.45272,7.65505,13.97905,13.97905,0,0,1,.5.5Z"/>
      <path d="M19.924,13.52793l.00736.01474A14.117,14.117,0,0,1,14.589,14.589a14.0697,14.0697,0,0,1-12.13631-6.934A11.2757,11.2757,0,0,1,19.924,13.52793Z" style="         fill: #e64337;       "/>
    </g>
    <g>
      <path d="M14.58891,15.08909A14.64889,14.64889,0,0,1,2.0225,7.90989,14.53246,14.53246,0,0,1,0,.5.5.5,0,0,1,.5,0H28.678a.5.5,0,0,1,.5.5,14.54775,14.54775,0,0,1-9.05688,13.50525A14.57086,14.57086,0,0,1,14.58891,15.08909ZM1.00908,1A13.51715,13.51715,0,0,0,2.88286,7.4l.00048.001a13.64517,13.64517,0,0,0,11.70557,6.68812,13.57708,13.57708,0,0,0,5.15356-1.00928A13.54876,13.54876,0,0,0,28.169,1Z"/>
      <path d="M19.92387,14.02805a.50013.50013,0,0,1-.479-.35754A10.8349,10.8349,0,0,0,9.12138,5.97385,10.67218,10.67218,0,0,0,2.74907,8.05759a.49992.49992,0,1,1-.59278-.80517A11.66423,11.66423,0,0,1,9.12138,4.97385a11.84109,11.84109,0,0,1,11.282,8.4115.50035.50035,0,0,1-.47949.6427Z"/>
    </g>
  </g>

        </g>
    </g>
</g>

              </svg>